<?xml version="1.0" encoding="UTF-8" standalone="no"?>
<svg
   width="480"
   height="672"
   viewBox="0 0 480 672"
   version="1.1"
   id="svg26"
   xmlns="http://www.w3.org/2000/svg"
   xmlns:svg="http://www.w3.org/2000/svg">
  <defs
     id="defs2" />
  <path
     id="rect4"
     d="M 0 0 L 0 96 L 96 96 L 192 96 L 288 96 L 384 96 L 384 192 L 480 192 L 480 96 L 480 0 L 384 0 L 288 0 L 192 0 L 96 0 L 0 0 z M 384 192 L 288 192 L 288 288 L 384 288 L 384 192 z M 288 288 L 192 288 L 192 384 L 192 480 L 192 576 L 192 672 L 288 672 L 288 576 L 288 480 L 288 384 L 288 288 z " />
</svg>
