<?xml version="1.0" encoding="UTF-8" standalone="no"?>
<svg
   width="640"
   height="896"
   viewBox="0 0 640 896"
   version="1.1"
   id="svg104"
   xmlns="http://www.w3.org/2000/svg"
   xmlns:svg="http://www.w3.org/2000/svg">
  <defs
     id="defs2" />
  <path
     id="rect4"
     d="M 64 256 L 64 320 L 128 320 L 192 320 L 256 320 L 320 320 L 384 320 L 448 320 L 512 320 L 576 320 L 576 256 L 512 256 L 448 256 L 384 256 L 320 256 L 256 256 L 192 256 L 128 256 L 64 256 z M 576 320 L 576 384 L 576 448 L 576 512 L 576 576 L 576 640 L 576 704 L 640 704 L 640 640 L 640 576 L 640 512 L 640 448 L 640 384 L 640 320 L 576 320 z M 576 704 L 512 704 L 512 640 L 512 576 L 512 512 L 512 448 L 512 384 L 448 384 L 384 384 L 320 384 L 256 384 L 192 384 L 192 448 L 256 448 L 320 448 L 384 448 L 448 448 L 448 512 L 448 576 L 448 640 L 448 704 L 384 704 L 320 704 L 256 704 L 192 704 L 192 768 L 256 768 L 320 768 L 384 768 L 448 768 L 512 768 L 576 768 L 576 704 z M 192 704 L 192 640 L 192 576 L 192 512 L 192 448 L 128 448 L 128 512 L 128 576 L 128 640 L 128 704 L 192 704 z M 64 320 L 0 320 L 0 384 L 0 448 L 0 512 L 0 576 L 0 640 L 0 704 L 0 768 L 0 832 L 64 832 L 64 768 L 64 704 L 64 640 L 64 576 L 64 512 L 64 448 L 64 384 L 64 320 z M 64 832 L 64 896 L 128 896 L 192 896 L 256 896 L 320 896 L 384 896 L 448 896 L 512 896 L 576 896 L 640 896 L 640 832 L 576 832 L 512 832 L 448 832 L 384 832 L 320 832 L 256 832 L 192 832 L 128 832 L 64 832 z " />
</svg>
