<?xml version="1.0" encoding="UTF-8" standalone="no"?>
<svg
   width="640"
   height="896"
   viewBox="0 0 640 896"
   version="1.1"
   id="svg76"
   xmlns="http://www.w3.org/2000/svg"
   xmlns:svg="http://www.w3.org/2000/svg">
  <defs
     id="defs2" />
  <path
     id="rect4"
     d="M 0 0 L 0 64 L 0 128 L 64 128 L 64 192 L 64 256 L 128 256 L 128 320 L 192 320 L 192 384 L 192 448 L 256 448 L 256 512 L 320 512 L 320 576 L 320 640 L 384 640 L 384 704 L 448 704 L 448 768 L 448 832 L 512 832 L 512 896 L 576 896 L 640 896 L 640 832 L 640 768 L 576 768 L 576 704 L 576 640 L 512 640 L 512 576 L 448 576 L 448 512 L 448 448 L 384 448 L 384 384 L 320 384 L 320 320 L 320 256 L 256 256 L 256 192 L 192 192 L 192 128 L 192 64 L 128 64 L 128 0 L 64 0 L 0 0 z " />
</svg>
