<?xml version="1.0" encoding="UTF-8" standalone="no"?>
<svg
   width="640"
   height="896"
   viewBox="0 0 640 896"
   version="1.1"
   id="svg76"
   xmlns="http://www.w3.org/2000/svg"
   xmlns:svg="http://www.w3.org/2000/svg">
  <defs
     id="defs2" />
  <path
     id="rect4"
     d="M 0 0 L 0 64 L 0 128 L 0 192 L 0 256 L 64 256 L 64 320 L 128 320 L 128 384 L 192 384 L 192 448 L 256 448 L 256 512 L 320 512 L 320 576 L 384 576 L 384 640 L 448 640 L 448 704 L 512 704 L 512 768 L 512 832 L 512 896 L 576 896 L 640 896 L 640 832 L 640 768 L 640 704 L 640 640 L 576 640 L 576 576 L 512 576 L 512 512 L 448 512 L 448 448 L 384 448 L 384 384 L 320 384 L 320 320 L 256 320 L 256 256 L 192 256 L 192 192 L 128 192 L 128 128 L 128 64 L 128 0 L 64 0 L 0 0 z " />
</svg>
