<?xml version="1.0" encoding="UTF-8" standalone="no"?>
<svg
   width="640"
   height="896"
   viewBox="0 0 640 896"
   version="1.1"
   id="svg60"
   xmlns="http://www.w3.org/2000/svg"
   xmlns:svg="http://www.w3.org/2000/svg">
  <defs
     id="defs2" />
  <path
     id="rect4"
     d="M 256 0 L 256 64 L 192 64 L 192 128 L 128 128 L 128 192 L 64 192 L 64 256 L 0 256 L 0 320 L 0 384 L 64 384 L 128 384 L 128 320 L 192 320 L 192 256 L 256 256 L 256 192 L 320 192 L 384 192 L 384 256 L 448 256 L 448 320 L 512 320 L 512 384 L 576 384 L 640 384 L 640 320 L 640 256 L 576 256 L 576 192 L 512 192 L 512 128 L 448 128 L 448 64 L 384 64 L 384 0 L 320 0 L 256 0 z " />
</svg>
