<?xml version="1.0" encoding="UTF-8" standalone="no"?>
<svg
   width="640"
   height="896"
   viewBox="0 0 640 896"
   version="1.1"
   id="svg160"
   xmlns="http://www.w3.org/2000/svg"
   xmlns:svg="http://www.w3.org/2000/svg">
  <defs
     id="defs2" />
  <path
     id="rect4"
     d="M 256 0 L 256 64 L 256 128 L 192 128 L 128 128 L 64 128 L 64 192 L 0 192 L 0 256 L 0 320 L 0 384 L 0 448 L 64 448 L 64 512 L 128 512 L 192 512 L 256 512 L 256 576 L 256 640 L 192 640 L 128 640 L 64 640 L 0 640 L 0 704 L 64 704 L 64 768 L 128 768 L 192 768 L 256 768 L 256 832 L 256 896 L 320 896 L 384 896 L 384 832 L 384 768 L 448 768 L 512 768 L 576 768 L 576 704 L 640 704 L 640 640 L 640 576 L 640 512 L 640 448 L 576 448 L 576 384 L 512 384 L 448 384 L 384 384 L 384 320 L 384 256 L 448 256 L 512 256 L 576 256 L 640 256 L 640 192 L 576 192 L 576 128 L 512 128 L 448 128 L 384 128 L 384 64 L 384 0 L 320 0 L 256 0 z M 128 256 L 192 256 L 256 256 L 256 320 L 256 384 L 192 384 L 128 384 L 128 320 L 128 256 z M 384 512 L 448 512 L 512 512 L 512 576 L 512 640 L 448 640 L 384 640 L 384 576 L 384 512 z " />
</svg>
