<?xml version="1.0" encoding="UTF-8" standalone="no"?>
<svg
   width="640"
   height="896"
   viewBox="0 0 640 896"
   version="1.1"
   id="svg84"
   xmlns="http://www.w3.org/2000/svg"
   xmlns:svg="http://www.w3.org/2000/svg">
  <defs
     id="defs2" />
  <path
     id="rect4"
     d="M 0 256 L 0 320 L 0 384 L 64 384 L 128 384 L 192 384 L 256 384 L 320 384 L 384 384 L 448 384 L 512 384 L 576 384 L 640 384 L 640 320 L 640 256 L 576 256 L 512 256 L 448 256 L 384 256 L 320 256 L 256 256 L 192 256 L 128 256 L 64 256 L 0 256 z M 0 512 L 0 576 L 0 640 L 64 640 L 128 640 L 192 640 L 256 640 L 320 640 L 384 640 L 448 640 L 512 640 L 576 640 L 640 640 L 640 576 L 640 512 L 576 512 L 512 512 L 448 512 L 384 512 L 320 512 L 256 512 L 192 512 L 128 512 L 64 512 L 0 512 z " />
</svg>
