<?xml version="1.0" encoding="UTF-8" standalone="no"?>
<svg
   width="640"
   height="896"
   viewBox="0 0 640 896"
   version="1.1"
   id="svg160"
   xmlns="http://www.w3.org/2000/svg"
   xmlns:svg="http://www.w3.org/2000/svg">
  <defs
     id="defs2" />
  <path
     id="rect4"
     d="M 0 0 L 0 64 L 0 128 L 0 192 L 0 256 L 0 320 L 0 384 L 0 448 L 0 512 L 0 576 L 0 640 L 0 704 L 0 768 L 0 832 L 0 896 L 64 896 L 128 896 L 192 896 L 256 896 L 320 896 L 384 896 L 448 896 L 512 896 L 576 896 L 640 896 L 640 832 L 640 768 L 640 704 L 640 640 L 640 576 L 640 512 L 640 448 L 640 384 L 576 384 L 512 384 L 448 384 L 384 384 L 320 384 L 320 448 L 320 512 L 384 512 L 448 512 L 512 512 L 512 576 L 512 640 L 512 704 L 512 768 L 448 768 L 384 768 L 320 768 L 256 768 L 192 768 L 128 768 L 128 704 L 128 640 L 128 576 L 128 512 L 128 448 L 128 384 L 128 320 L 128 256 L 128 192 L 128 128 L 192 128 L 256 128 L 320 128 L 384 128 L 448 128 L 512 128 L 576 128 L 640 128 L 640 64 L 640 0 L 576 0 L 512 0 L 448 0 L 384 0 L 320 0 L 256 0 L 192 0 L 128 0 L 64 0 L 0 0 z " />
</svg>
