<?xml version="1.0" encoding="UTF-8" standalone="no"?>
<svg
   width="640"
   height="896"
   viewBox="0 0 640 896"
   version="1.1"
   id="svg164"
   xmlns="http://www.w3.org/2000/svg"
   xmlns:svg="http://www.w3.org/2000/svg">
  <defs
     id="defs2" />
  <path
     id="rect4"
     d="M 128 0 L 128 64 L 128 128 L 128 192 L 128 256 L 64 256 L 0 256 L 0 320 L 0 384 L 64 384 L 128 384 L 128 448 L 128 512 L 64 512 L 0 512 L 0 576 L 0 640 L 64 640 L 128 640 L 128 704 L 128 768 L 128 832 L 128 896 L 192 896 L 256 896 L 256 832 L 256 768 L 256 704 L 256 640 L 320 640 L 384 640 L 384 704 L 384 768 L 384 832 L 384 896 L 448 896 L 512 896 L 512 832 L 512 768 L 512 704 L 512 640 L 576 640 L 640 640 L 640 576 L 640 512 L 576 512 L 512 512 L 512 448 L 512 384 L 576 384 L 640 384 L 640 320 L 640 256 L 576 256 L 512 256 L 512 192 L 512 128 L 512 64 L 512 0 L 448 0 L 384 0 L 384 64 L 384 128 L 384 192 L 384 256 L 320 256 L 256 256 L 256 192 L 256 128 L 256 64 L 256 0 L 192 0 L 128 0 z M 256 384 L 320 384 L 384 384 L 384 448 L 384 512 L 320 512 L 256 512 L 256 448 L 256 384 z " />
</svg>
