<?xml version="1.0" encoding="UTF-8" standalone="no"?>
<svg
   width="640"
   height="896"
   viewBox="0 0 640 896"
   version="1.1"
   id="svg124"
   xmlns="http://www.w3.org/2000/svg"
   xmlns:svg="http://www.w3.org/2000/svg">
  <defs
     id="defs2" />
  <path
     id="rect4"
     d="M 0 0 L 0 64 L 0 128 L 64 128 L 128 128 L 192 128 L 256 128 L 256 192 L 256 256 L 256 320 L 256 384 L 256 448 L 256 512 L 256 576 L 256 640 L 256 704 L 256 768 L 192 768 L 128 768 L 64 768 L 0 768 L 0 832 L 0 896 L 64 896 L 128 896 L 192 896 L 256 896 L 320 896 L 384 896 L 448 896 L 512 896 L 576 896 L 640 896 L 640 832 L 640 768 L 576 768 L 512 768 L 448 768 L 384 768 L 384 704 L 384 640 L 384 576 L 384 512 L 384 448 L 384 384 L 384 320 L 384 256 L 384 192 L 384 128 L 448 128 L 512 128 L 576 128 L 640 128 L 640 64 L 640 0 L 576 0 L 512 0 L 448 0 L 384 0 L 320 0 L 256 0 L 192 0 L 128 0 L 64 0 L 0 0 z " />
</svg>
