<?xml version="1.0" encoding="UTF-8" standalone="no"?>
<svg
   width="640"
   height="896"
   viewBox="0 0 640 896"
   version="1.1"
   id="svg92"
   xmlns="http://www.w3.org/2000/svg"
   xmlns:svg="http://www.w3.org/2000/svg">
  <defs
     id="defs2" />
  <path
     id="rect4"
     d="M 512 0 L 512 64 L 512 128 L 512 192 L 512 256 L 512 320 L 512 384 L 512 448 L 512 512 L 512 576 L 512 640 L 512 704 L 448 704 L 448 768 L 384 768 L 320 768 L 256 768 L 192 768 L 192 704 L 128 704 L 128 640 L 64 640 L 0 640 L 0 704 L 0 768 L 64 768 L 64 832 L 128 832 L 128 896 L 192 896 L 256 896 L 320 896 L 384 896 L 448 896 L 512 896 L 512 832 L 576 832 L 576 768 L 640 768 L 640 704 L 640 640 L 640 576 L 640 512 L 640 448 L 640 384 L 640 320 L 640 256 L 640 192 L 640 128 L 640 64 L 640 0 L 576 0 L 512 0 z " />
</svg>
