<?xml version="1.0" encoding="UTF-8" standalone="no"?>
<svg
   width="640"
   height="1152"
   viewBox="0 0 640 1152"
   version="1.1"
   id="svg100"
   xmlns="http://www.w3.org/2000/svg"
   xmlns:svg="http://www.w3.org/2000/svg">
  <defs
     id="defs2" />
  <path
     id="rect4"
     d="M 512 64 L 512 128 L 512 192 L 576 192 L 640 192 L 640 128 L 640 64 L 576 64 L 512 64 z M 512 256 L 512 320 L 512 384 L 512 448 L 512 512 L 512 576 L 512 640 L 512 704 L 512 768 L 512 832 L 512 896 L 512 960 L 448 960 L 448 1024 L 384 1024 L 320 1024 L 256 1024 L 192 1024 L 192 960 L 128 960 L 128 896 L 64 896 L 0 896 L 0 960 L 0 1024 L 64 1024 L 64 1088 L 128 1088 L 128 1152 L 192 1152 L 256 1152 L 320 1152 L 384 1152 L 448 1152 L 512 1152 L 512 1088 L 576 1088 L 576 1024 L 640 1024 L 640 960 L 640 896 L 640 832 L 640 768 L 640 704 L 640 640 L 640 576 L 640 512 L 640 448 L 640 384 L 640 320 L 640 256 L 576 256 L 512 256 z " />
</svg>
