<?xml version="1.0" encoding="UTF-8" standalone="no"?>
<svg
   width="640"
   height="896"
   viewBox="0 0 640 896"
   version="1.1"
   id="svg66"
   xmlns="http://www.w3.org/2000/svg"
   xmlns:svg="http://www.w3.org/2000/svg">
  <defs
     id="defs2" />
  <path
     id="rect4"
     d="M 192 0 L 192 64 L 192 128 L 192 192 L 192 256 L 192 320 L 192 384 L 192 448 L 192 512 L 192 576 L 192 640 L 192 704 L 192 768 L 192 832 L 256 832 L 256 896 L 320 896 L 384 896 L 448 896 L 448 832 L 448 768 L 384 768 L 320 768 L 320 704 L 320 640 L 320 576 L 320 512 L 320 448 L 320 384 L 320 320 L 320 256 L 320 192 L 320 128 L 320 64 L 320 0 L 256 0 L 192 0 z " />
</svg>
