<?xml version="1.0" encoding="UTF-8" standalone="no"?>
<svg
   width="640"
   height="896"
   viewBox="0 0 640 896"
   version="1.1"
   id="svg84"
   xmlns="http://www.w3.org/2000/svg"
   xmlns:svg="http://www.w3.org/2000/svg">
  <defs
     id="defs2" />
  <path
     id="rect4"
     d="M 384 0 L 384 64 L 320 64 L 320 128 L 256 128 L 256 192 L 192 192 L 192 256 L 128 256 L 128 320 L 64 320 L 64 384 L 0 384 L 0 448 L 0 512 L 64 512 L 64 576 L 128 576 L 128 640 L 192 640 L 192 704 L 256 704 L 256 768 L 320 768 L 320 832 L 384 832 L 384 896 L 448 896 L 512 896 L 512 832 L 512 768 L 448 768 L 448 704 L 384 704 L 384 640 L 320 640 L 320 576 L 256 576 L 256 512 L 192 512 L 192 448 L 192 384 L 256 384 L 256 320 L 320 320 L 320 256 L 384 256 L 384 192 L 448 192 L 448 128 L 512 128 L 512 64 L 512 0 L 448 0 L 384 0 z " />
</svg>
