<?xml version="1.0" encoding="UTF-8" standalone="no"?>
<svg
   width="640"
   height="896"
   viewBox="0 0 640 896"
   version="1.1"
   id="svg76"
   xmlns="http://www.w3.org/2000/svg"
   xmlns:svg="http://www.w3.org/2000/svg">
  <defs
     id="defs2" />
  <path
     id="rect4"
     d="M 128 0 L 128 64 L 64 64 L 64 128 L 0 128 L 0 192 L 0 256 L 0 320 L 0 384 L 0 448 L 0 512 L 0 576 L 0 640 L 0 704 L 0 768 L 64 768 L 64 832 L 128 832 L 128 896 L 192 896 L 256 896 L 320 896 L 320 832 L 320 768 L 256 768 L 192 768 L 192 704 L 128 704 L 128 640 L 128 576 L 128 512 L 128 448 L 128 384 L 128 320 L 128 256 L 128 192 L 192 192 L 192 128 L 256 128 L 320 128 L 320 64 L 320 0 L 256 0 L 192 0 L 128 0 z " />
</svg>
