<?xml version="1.0" encoding="UTF-8" standalone="no"?>
<svg
   width="640"
   height="896"
   viewBox="0 0 640 896"
   version="1.1"
   id="svg124"
   xmlns="http://www.w3.org/2000/svg"
   xmlns:svg="http://www.w3.org/2000/svg">
  <defs
     id="defs2" />
  <path
     id="rect4"
     d="M 0 0 L 0 64 L 0 128 L 0 192 L 0 256 L 64 256 L 128 256 L 192 256 L 256 256 L 256 192 L 256 128 L 256 64 L 256 0 L 192 0 L 128 0 L 64 0 L 0 0 z M 512 0 L 512 64 L 448 64 L 448 128 L 448 192 L 384 192 L 384 256 L 320 256 L 320 320 L 320 384 L 256 384 L 256 448 L 192 448 L 192 512 L 192 576 L 128 576 L 128 640 L 64 640 L 64 704 L 64 768 L 0 768 L 0 832 L 0 896 L 64 896 L 128 896 L 128 832 L 192 832 L 192 768 L 192 704 L 256 704 L 256 640 L 320 640 L 320 576 L 320 512 L 384 512 L 384 448 L 448 448 L 448 384 L 448 320 L 512 320 L 512 256 L 576 256 L 576 192 L 576 128 L 640 128 L 640 64 L 640 0 L 576 0 L 512 0 z M 64 64 L 128 64 L 192 64 L 192 128 L 192 192 L 128 192 L 64 192 L 64 128 L 64 64 z M 384 640 L 384 704 L 384 768 L 384 832 L 384 896 L 448 896 L 512 896 L 576 896 L 640 896 L 640 832 L 640 768 L 640 704 L 640 640 L 576 640 L 512 640 L 448 640 L 384 640 z M 448 704 L 512 704 L 576 704 L 576 768 L 576 832 L 512 832 L 448 832 L 448 768 L 448 704 z " />
</svg>
