<?xml version="1.0" encoding="UTF-8" standalone="no"?>
<svg
   width="640"
   height="896"
   viewBox="0 0 640 896"
   version="1.1"
   id="svg76"
   xmlns="http://www.w3.org/2000/svg"
   xmlns:svg="http://www.w3.org/2000/svg">
  <defs
     id="defs2" />
  <path
     id="rect4"
     d="M 256 128 L 256 192 L 256 256 L 256 320 L 256 384 L 192 384 L 128 384 L 64 384 L 0 384 L 0 448 L 0 512 L 64 512 L 128 512 L 192 512 L 256 512 L 256 576 L 256 640 L 256 704 L 256 768 L 320 768 L 384 768 L 384 704 L 384 640 L 384 576 L 384 512 L 448 512 L 512 512 L 576 512 L 640 512 L 640 448 L 640 384 L 576 384 L 512 384 L 448 384 L 384 384 L 384 320 L 384 256 L 384 192 L 384 128 L 320 128 L 256 128 z " />
</svg>
