<?xml version="1.0" encoding="UTF-8" standalone="no"?>
<svg
   width="640"
   height="896"
   viewBox="0 0 640 896"
   version="1.1"
   id="svg96"
   xmlns="http://www.w3.org/2000/svg"
   xmlns:svg="http://www.w3.org/2000/svg">
  <defs
     id="defs2" />
  <path
     id="rect4"
     d="M 64 0 L 64 64 L 0 64 L 0 128 L 0 192 L 64 192 L 128 192 L 128 128 L 192 128 L 256 128 L 320 128 L 384 128 L 448 128 L 512 128 L 512 192 L 512 256 L 448 256 L 448 320 L 384 320 L 384 384 L 320 384 L 320 448 L 256 448 L 256 512 L 256 576 L 256 640 L 256 704 L 320 704 L 384 704 L 384 640 L 384 576 L 384 512 L 448 512 L 448 448 L 512 448 L 512 384 L 576 384 L 576 320 L 640 320 L 640 256 L 640 192 L 640 128 L 640 64 L 576 64 L 576 0 L 512 0 L 448 0 L 384 0 L 320 0 L 256 0 L 192 0 L 128 0 L 64 0 z M 256 768 L 256 832 L 256 896 L 320 896 L 384 896 L 384 832 L 384 768 L 320 768 L 256 768 z " />
</svg>
