<?xml version="1.0" encoding="UTF-8" standalone="no"?>
<svg
   width="640"
   height="896"
   viewBox="0 0 640 896"
   version="1.1"
   id="svg76"
   xmlns="http://www.w3.org/2000/svg"
   xmlns:svg="http://www.w3.org/2000/svg">
  <defs
     id="defs2" />
  <path
     id="rect4"
     d="M 0 0 L 0 64 L 0 128 L 64 128 L 128 128 L 128 192 L 192 192 L 192 256 L 192 320 L 192 384 L 192 448 L 192 512 L 192 576 L 192 640 L 192 704 L 128 704 L 128 768 L 64 768 L 0 768 L 0 832 L 0 896 L 64 896 L 128 896 L 192 896 L 192 832 L 256 832 L 256 768 L 320 768 L 320 704 L 320 640 L 320 576 L 320 512 L 320 448 L 320 384 L 320 320 L 320 256 L 320 192 L 320 128 L 256 128 L 256 64 L 192 64 L 192 0 L 128 0 L 64 0 L 0 0 z " />
</svg>
