<?xml version="1.0" encoding="UTF-8" standalone="no"?>
<svg
   width="640"
   height="896"
   viewBox="0 0 640 896"
   version="1.1"
   id="svg76"
   xmlns="http://www.w3.org/2000/svg"
   xmlns:svg="http://www.w3.org/2000/svg">
  <defs
     id="defs2" />
  <path
     id="rect4"
     d="M 512 0 L 512 64 L 448 64 L 448 128 L 448 192 L 384 192 L 384 256 L 320 256 L 320 320 L 320 384 L 256 384 L 256 448 L 192 448 L 192 512 L 192 576 L 128 576 L 128 640 L 64 640 L 64 704 L 64 768 L 0 768 L 0 832 L 0 896 L 64 896 L 128 896 L 128 832 L 192 832 L 192 768 L 192 704 L 256 704 L 256 640 L 320 640 L 320 576 L 320 512 L 384 512 L 384 448 L 448 448 L 448 384 L 448 320 L 512 320 L 512 256 L 576 256 L 576 192 L 576 128 L 640 128 L 640 64 L 640 0 L 576 0 L 512 0 z " />
</svg>
