<?xml version="1.0" encoding="UTF-8" standalone="no"?>
<svg
   width="640"
   height="896"
   viewBox="0 0 640 896"
   version="1.1"
   id="svg76"
   xmlns="http://www.w3.org/2000/svg"
   xmlns:svg="http://www.w3.org/2000/svg">
  <defs
     id="defs2" />
  <path
     id="rect4"
     d="M 512 0 L 512 64 L 512 128 L 512 192 L 448 192 L 448 256 L 384 256 L 384 320 L 320 320 L 320 384 L 256 384 L 256 448 L 192 448 L 192 512 L 128 512 L 128 576 L 64 576 L 64 640 L 0 640 L 0 704 L 0 768 L 0 832 L 0 896 L 64 896 L 128 896 L 128 832 L 128 768 L 128 704 L 192 704 L 192 640 L 256 640 L 256 576 L 320 576 L 320 512 L 384 512 L 384 448 L 448 448 L 448 384 L 512 384 L 512 320 L 576 320 L 576 256 L 640 256 L 640 192 L 640 128 L 640 64 L 640 0 L 576 0 L 512 0 z " />
</svg>
