<?xml version="1.0" encoding="UTF-8" standalone="no"?>
<svg
   width="640"
   height="896"
   viewBox="0 0 640 896"
   version="1.1"
   id="svg106"
   xmlns="http://www.w3.org/2000/svg"
   xmlns:svg="http://www.w3.org/2000/svg">
  <defs
     id="defs2" />
  <path
     id="rect4"
     d="M 256 0 L 256 64 L 256 128 L 256 192 L 256 256 L 192 256 L 128 256 L 64 256 L 0 256 L 0 320 L 0 384 L 64 384 L 128 384 L 192 384 L 256 384 L 256 448 L 256 512 L 256 576 L 256 640 L 256 704 L 256 768 L 256 832 L 320 832 L 320 896 L 384 896 L 448 896 L 512 896 L 576 896 L 640 896 L 640 832 L 640 768 L 576 768 L 512 768 L 448 768 L 384 768 L 384 704 L 384 640 L 384 576 L 384 512 L 384 448 L 384 384 L 448 384 L 512 384 L 576 384 L 640 384 L 640 320 L 640 256 L 576 256 L 512 256 L 448 256 L 384 256 L 384 192 L 384 128 L 384 64 L 384 0 L 320 0 L 256 0 z " />
</svg>
