<?xml version="1.0" encoding="UTF-8" standalone="no"?>
<svg
   width="640"
   height="896"
   viewBox="0 0 640 896"
   version="1.1"
   id="svg56"
   xmlns="http://www.w3.org/2000/svg"
   xmlns:svg="http://www.w3.org/2000/svg">
  <defs
     id="defs2" />
  <path
     id="rect4"
     d="M 128 320 L 128 384 L 64 384 L 64 448 L 0 448 L 0 512 L 0 576 L 64 576 L 128 576 L 128 512 L 192 512 L 192 448 L 256 448 L 256 512 L 320 512 L 320 576 L 384 576 L 448 576 L 512 576 L 512 512 L 576 512 L 576 448 L 640 448 L 640 384 L 640 320 L 576 320 L 512 320 L 512 384 L 448 384 L 448 448 L 384 448 L 384 384 L 320 384 L 320 320 L 256 320 L 192 320 L 128 320 z " />
</svg>
