<?xml version="1.0" encoding="UTF-8" standalone="no"?>
<svg
   width="640"
   height="896"
   viewBox="0 0 640 896"
   version="1.1"
   id="svg108"
   xmlns="http://www.w3.org/2000/svg"
   xmlns:svg="http://www.w3.org/2000/svg">
  <defs
     id="defs2" />
  <path
     id="rect4"
     d="M 0 256 L 0 320 L 0 384 L 64 384 L 64 448 L 128 448 L 128 512 L 192 512 L 192 576 L 192 640 L 128 640 L 128 704 L 64 704 L 64 768 L 0 768 L 0 832 L 0 896 L 64 896 L 128 896 L 128 832 L 192 832 L 192 768 L 256 768 L 256 704 L 320 704 L 384 704 L 384 768 L 448 768 L 448 832 L 512 832 L 512 896 L 576 896 L 640 896 L 640 832 L 640 768 L 576 768 L 576 704 L 512 704 L 512 640 L 448 640 L 448 576 L 448 512 L 512 512 L 512 448 L 576 448 L 576 384 L 640 384 L 640 320 L 640 256 L 576 256 L 512 256 L 512 320 L 448 320 L 448 384 L 384 384 L 384 448 L 320 448 L 256 448 L 256 384 L 192 384 L 192 320 L 128 320 L 128 256 L 64 256 L 0 256 z " />
</svg>
