<?xml version="1.0" encoding="UTF-8" standalone="no"?>
<svg
   width="640"
   height="896"
   viewBox="0 0 640 896"
   version="1.1"
   id="svg100"
   xmlns="http://www.w3.org/2000/svg"
   xmlns:svg="http://www.w3.org/2000/svg">
  <defs
     id="defs2" />
  <path
     id="rect4"
     d="M 0 0 L 0 64 L 0 128 L 0 192 L 0 256 L 64 256 L 64 320 L 128 320 L 128 384 L 192 384 L 192 448 L 256 448 L 256 512 L 256 576 L 256 640 L 256 704 L 256 768 L 256 832 L 256 896 L 320 896 L 384 896 L 384 832 L 384 768 L 384 704 L 384 640 L 384 576 L 384 512 L 384 448 L 448 448 L 448 384 L 512 384 L 512 320 L 576 320 L 576 256 L 640 256 L 640 192 L 640 128 L 640 64 L 640 0 L 576 0 L 512 0 L 512 64 L 512 128 L 512 192 L 448 192 L 448 256 L 384 256 L 384 320 L 320 320 L 256 320 L 256 256 L 192 256 L 192 192 L 128 192 L 128 128 L 128 64 L 128 0 L 64 0 L 0 0 z " />
</svg>
