<?xml version="1.0" encoding="UTF-8" standalone="no"?>
<svg
   width="640"
   height="896"
   viewBox="0 0 640 896"
   version="1.1"
   id="svg120"
   xmlns="http://www.w3.org/2000/svg"
   xmlns:svg="http://www.w3.org/2000/svg">
  <defs
     id="defs2" />
  <path
     id="rect4"
     d="M 0 256 L 0 320 L 0 384 L 64 384 L 128 384 L 192 384 L 256 384 L 320 384 L 384 384 L 384 448 L 320 448 L 320 512 L 256 512 L 256 576 L 192 576 L 192 640 L 128 640 L 128 704 L 64 704 L 64 768 L 0 768 L 0 832 L 0 896 L 64 896 L 128 896 L 192 896 L 256 896 L 320 896 L 384 896 L 448 896 L 512 896 L 576 896 L 640 896 L 640 832 L 640 768 L 576 768 L 512 768 L 448 768 L 384 768 L 320 768 L 256 768 L 256 704 L 320 704 L 320 640 L 384 640 L 384 576 L 448 576 L 448 512 L 512 512 L 512 448 L 576 448 L 576 384 L 640 384 L 640 320 L 640 256 L 576 256 L 512 256 L 448 256 L 384 256 L 320 256 L 256 256 L 192 256 L 128 256 L 64 256 L 0 256 z " />
</svg>
