<?xml version="1.0" encoding="UTF-8" standalone="no"?>
<svg
   width="768"
   height="768"
   viewBox="0 0 768 768"
   version="1.1"
   id="svg84"
   xmlns="http://www.w3.org/2000/svg"
   xmlns:svg="http://www.w3.org/2000/svg">
  <defs
     id="defs2" />
  <path
     id="rect4"
     d="M 128 0 L 128 64 L 128 128 L 192 128 L 256 128 L 320 128 L 384 128 L 448 128 L 512 128 L 512 192 L 512 256 L 448 256 L 448 320 L 448 384 L 384 384 L 384 448 L 384 512 L 320 512 L 320 576 L 320 640 L 256 640 L 256 704 L 256 768 L 320 768 L 384 768 L 384 704 L 448 704 L 448 640 L 448 576 L 512 576 L 512 512 L 512 448 L 576 448 L 576 384 L 576 320 L 640 320 L 640 256 L 640 192 L 640 128 L 640 64 L 640 0 L 576 0 L 512 0 L 448 0 L 384 0 L 320 0 L 256 0 L 192 0 L 128 0 z " />
</svg>
