<?xml version="1.0" encoding="UTF-8" standalone="no"?>
<svg
   width="768"
   height="768"
   viewBox="0 0 768 768"
   version="1.1"
   id="svg48"
   xmlns="http://www.w3.org/2000/svg"
   xmlns:svg="http://www.w3.org/2000/svg">
  <defs
     id="defs2" />
  <path
     id="rect4"
     d="M 320 0 L 320 64 L 256 64 L 256 128 L 192 128 L 192 192 L 128 192 L 128 256 L 128 320 L 192 320 L 256 320 L 256 256 L 320 256 L 320 192 L 384 192 L 448 192 L 448 256 L 512 256 L 512 320 L 576 320 L 640 320 L 640 256 L 640 192 L 576 192 L 576 128 L 512 128 L 512 64 L 448 64 L 448 0 L 384 0 L 320 0 z " />
</svg>
