<?xml version="1.0" encoding="UTF-8" standalone="no"?>
<svg
   width="768"
   height="768"
   viewBox="0 0 768 768"
   version="1.1"
   id="svg80"
   xmlns="http://www.w3.org/2000/svg"
   xmlns:svg="http://www.w3.org/2000/svg">
  <defs
     id="defs2" />
  <path
     id="rect4"
     d="M 128 128 L 128 192 L 128 256 L 128 320 L 128 384 L 128 448 L 128 512 L 128 576 L 128 640 L 192 640 L 256 640 L 320 640 L 384 640 L 448 640 L 512 640 L 576 640 L 640 640 L 640 576 L 640 512 L 640 448 L 640 384 L 640 320 L 640 256 L 640 192 L 640 128 L 576 128 L 512 128 L 448 128 L 384 128 L 320 128 L 256 128 L 192 128 L 128 128 z M 192 192 L 256 192 L 320 192 L 384 192 L 448 192 L 512 192 L 576 192 L 576 256 L 576 320 L 576 384 L 576 448 L 576 512 L 576 576 L 512 576 L 448 576 L 384 576 L 320 576 L 256 576 L 192 576 L 192 512 L 192 448 L 192 384 L 192 320 L 192 256 L 192 192 z M 256 256 L 256 320 L 256 384 L 256 448 L 256 512 L 320 512 L 384 512 L 448 512 L 512 512 L 512 448 L 448 448 L 384 448 L 320 448 L 320 384 L 320 320 L 384 320 L 448 320 L 512 320 L 512 256 L 448 256 L 384 256 L 320 256 L 256 256 z " />
</svg>
