<?xml version="1.0" encoding="UTF-8" standalone="no"?>
<svg
   width="768"
   height="768"
   viewBox="0 0 768 768"
   version="1.1"
   id="svg76"
   xmlns="http://www.w3.org/2000/svg"
   xmlns:svg="http://www.w3.org/2000/svg">
  <defs
     id="defs2" />
  <path
     id="rect4"
     d="M 128 0 L 128 64 L 192 64 L 192 128 L 256 128 L 256 192 L 320 192 L 320 256 L 384 256 L 384 320 L 448 320 L 448 384 L 448 448 L 384 448 L 384 512 L 320 512 L 320 576 L 256 576 L 256 640 L 192 640 L 192 704 L 128 704 L 128 768 L 192 768 L 256 768 L 320 768 L 320 704 L 384 704 L 384 640 L 448 640 L 448 576 L 512 576 L 512 512 L 576 512 L 576 448 L 640 448 L 640 384 L 640 320 L 576 320 L 576 256 L 512 256 L 512 192 L 448 192 L 448 128 L 384 128 L 384 64 L 320 64 L 320 0 L 256 0 L 192 0 L 128 0 z " />
</svg>
