<?xml version="1.0" encoding="UTF-8" standalone="no"?>
<svg
   width="768"
   height="768"
   viewBox="0 0 768 768"
   version="1.1"
   id="svg132"
   xmlns="http://www.w3.org/2000/svg"
   xmlns:svg="http://www.w3.org/2000/svg">
  <defs
     id="defs2" />
  <path
     id="rect4"
     d="M 192 0 L 192 64 L 192 128 L 192 192 L 128 192 L 128 256 L 128 320 L 192 320 L 192 384 L 192 448 L 128 448 L 128 512 L 128 576 L 192 576 L 192 640 L 192 704 L 192 768 L 256 768 L 320 768 L 320 704 L 320 640 L 320 576 L 384 576 L 448 576 L 448 640 L 448 704 L 448 768 L 512 768 L 576 768 L 576 704 L 576 640 L 576 576 L 640 576 L 640 512 L 640 448 L 576 448 L 576 384 L 576 320 L 640 320 L 640 256 L 640 192 L 576 192 L 576 128 L 576 64 L 576 0 L 512 0 L 448 0 L 448 64 L 448 128 L 448 192 L 384 192 L 320 192 L 320 128 L 320 64 L 320 0 L 256 0 L 192 0 z M 320 320 L 384 320 L 448 320 L 448 384 L 448 448 L 384 448 L 320 448 L 320 384 L 320 320 z " />
</svg>
