<?xml version="1.0" encoding="UTF-8" standalone="no"?>
<svg
   width="768"
   height="768"
   viewBox="0 0 768 768"
   version="1.1"
   id="svg58"
   xmlns="http://www.w3.org/2000/svg"
   xmlns:svg="http://www.w3.org/2000/svg">
  <defs
     id="defs2" />
  <path
     id="rect4"
     d="M 256 0 L 256 64 L 256 128 L 256 192 L 256 256 L 256 320 L 256 384 L 256 448 L 256 512 L 256 576 L 256 640 L 256 704 L 320 704 L 320 768 L 384 768 L 448 768 L 512 768 L 512 704 L 512 640 L 448 640 L 384 640 L 384 576 L 384 512 L 384 448 L 384 384 L 384 320 L 384 256 L 384 192 L 384 128 L 384 64 L 384 0 L 320 0 L 256 0 z " />
</svg>
