<?xml version="1.0" encoding="UTF-8" standalone="no"?>
<svg
   width="768"
   height="768"
   viewBox="0 0 768 768"
   version="1.1"
   id="svg60"
   xmlns="http://www.w3.org/2000/svg"
   xmlns:svg="http://www.w3.org/2000/svg">
  <defs
     id="defs2" />
  <path
     id="rect4"
     d="M 320 128 L 320 192 L 320 256 L 320 320 L 256 320 L 192 320 L 128 320 L 128 384 L 128 448 L 192 448 L 256 448 L 320 448 L 320 512 L 320 576 L 320 640 L 384 640 L 448 640 L 448 576 L 448 512 L 448 448 L 512 448 L 576 448 L 640 448 L 640 384 L 640 320 L 576 320 L 512 320 L 448 320 L 448 256 L 448 192 L 448 128 L 384 128 L 320 128 z " />
</svg>
