<?xml version="1.0" encoding="UTF-8" standalone="no"?>
<svg
   width="768"
   height="768"
   viewBox="0 0 768 768"
   version="1.1"
   id="svg76"
   xmlns="http://www.w3.org/2000/svg"
   xmlns:svg="http://www.w3.org/2000/svg">
  <defs
     id="defs2" />
  <path
     id="rect4"
     d="M 128 0 L 128 64 L 128 128 L 192 128 L 256 128 L 320 128 L 320 192 L 320 256 L 320 320 L 320 384 L 320 448 L 320 512 L 320 576 L 320 640 L 320 704 L 320 768 L 384 768 L 448 768 L 448 704 L 448 640 L 448 576 L 448 512 L 448 448 L 448 384 L 448 320 L 448 256 L 448 192 L 448 128 L 512 128 L 576 128 L 640 128 L 640 64 L 640 0 L 576 0 L 512 0 L 448 0 L 384 0 L 320 0 L 256 0 L 192 0 L 128 0 z " />
</svg>
