<?xml version="1.0" encoding="UTF-8" standalone="no"?>
<svg
   width="768"
   height="768"
   viewBox="0 0 768 768"
   version="1.1"
   id="svg70"
   xmlns="http://www.w3.org/2000/svg"
   xmlns:svg="http://www.w3.org/2000/svg">
  <defs
     id="defs2" />
  <path
     id="rect4"
     d="M 320 0 L 320 64 L 320 128 L 320 192 L 320 256 L 256 256 L 192 256 L 192 320 L 192 384 L 256 384 L 320 384 L 320 448 L 320 512 L 320 576 L 320 640 L 320 704 L 384 704 L 384 768 L 448 768 L 512 768 L 512 704 L 512 640 L 448 640 L 448 576 L 448 512 L 448 448 L 448 384 L 512 384 L 576 384 L 576 320 L 576 256 L 512 256 L 448 256 L 448 192 L 448 128 L 448 64 L 448 0 L 384 0 L 320 0 z " />
</svg>
