<?xml version="1.0" encoding="UTF-8" standalone="no"?>
<svg
   width="768"
   height="768"
   viewBox="0 0 768 768"
   version="1.1"
   id="svg116"
   xmlns="http://www.w3.org/2000/svg"
   xmlns:svg="http://www.w3.org/2000/svg">
  <defs
     id="defs2" />
  <path
     id="rect4"
     d="M 128 0 L 128 64 L 128 128 L 128 192 L 128 256 L 128 320 L 128 384 L 128 448 L 128 512 L 128 576 L 128 640 L 128 704 L 192 704 L 192 768 L 256 768 L 320 768 L 384 768 L 448 768 L 512 768 L 576 768 L 576 704 L 640 704 L 640 640 L 640 576 L 640 512 L 640 448 L 640 384 L 640 320 L 640 256 L 640 192 L 640 128 L 640 64 L 640 0 L 576 0 L 512 0 L 512 64 L 512 128 L 512 192 L 512 256 L 512 320 L 512 384 L 512 448 L 512 512 L 512 576 L 448 576 L 448 640 L 384 640 L 320 640 L 320 576 L 256 576 L 256 512 L 256 448 L 256 384 L 256 320 L 256 256 L 256 192 L 256 128 L 256 64 L 256 0 L 192 0 L 128 0 z " />
</svg>
