<?xml version="1.0" encoding="UTF-8" standalone="no"?>
<svg
   width="768"
   height="768"
   viewBox="0 0 768 768"
   version="1.1"
   id="svg116"
   xmlns="http://www.w3.org/2000/svg"
   xmlns:svg="http://www.w3.org/2000/svg">
  <defs
     id="defs2" />
  <path
     id="rect4"
     d="M 128 0 L 128 64 L 128 128 L 128 192 L 128 256 L 192 256 L 192 320 L 256 320 L 256 384 L 256 448 L 192 448 L 192 512 L 128 512 L 128 576 L 128 640 L 128 704 L 128 768 L 192 768 L 256 768 L 256 704 L 256 640 L 256 576 L 320 576 L 320 512 L 384 512 L 448 512 L 448 576 L 512 576 L 512 640 L 512 704 L 512 768 L 576 768 L 640 768 L 640 704 L 640 640 L 640 576 L 640 512 L 576 512 L 576 448 L 512 448 L 512 384 L 512 320 L 576 320 L 576 256 L 640 256 L 640 192 L 640 128 L 640 64 L 640 0 L 576 0 L 512 0 L 512 64 L 512 128 L 512 192 L 448 192 L 448 256 L 384 256 L 320 256 L 320 192 L 256 192 L 256 128 L 256 64 L 256 0 L 192 0 L 128 0 z " />
</svg>
