<?xml version="1.0" encoding="UTF-8" standalone="no"?>
<svg
   width="130"
   height="170"
   viewBox="0 0 130 170"
   version="1.1"
   id="svg214"
   xmlns="http://www.w3.org/2000/svg"
   xmlns:svg="http://www.w3.org/2000/svg">
  <defs
     id="defs2" />
  <path
     id="rect4"
     d="M 50 0 L 50 10 L 40 10 L 40 20 L 30 20 L 30 30 L 20 30 L 20 40 L 10 40 L 10 50 L 0 50 L 0 60 L 0 70 L 0 80 L 0 90 L 0 100 L 10 100 L 20 100 L 30 100 L 40 100 L 50 100 L 60 100 L 70 100 L 70 110 L 70 120 L 70 130 L 70 140 L 70 150 L 70 160 L 70 170 L 80 170 L 90 170 L 100 170 L 100 160 L 100 150 L 100 140 L 100 130 L 100 120 L 100 110 L 100 100 L 110 100 L 120 100 L 130 100 L 130 90 L 130 80 L 130 70 L 120 70 L 110 70 L 100 70 L 100 60 L 100 50 L 100 40 L 100 30 L 100 20 L 100 10 L 100 0 L 90 0 L 80 0 L 70 0 L 60 0 L 50 0 z M 60 30 L 70 30 L 70 40 L 70 50 L 70 60 L 70 70 L 60 70 L 50 70 L 40 70 L 30 70 L 30 60 L 40 60 L 40 50 L 50 50 L 50 40 L 60 40 L 60 30 z " />
</svg>
