<?xml version="1.0" encoding="UTF-8" standalone="no"?>
<svg
   width="13"
   height="17"
   viewBox="0 0 13 17"
   version="1.1"
   id="svg286"
   xmlns="http://www.w3.org/2000/svg"
   xmlns:svg="http://www.w3.org/2000/svg">
  <defs
     id="defs2" />
  <path
     id="rect4"
     d="M 0 0 L 0 1 L 0 2 L 0 3 L 0 4 L 0 5 L 0 6 L 0 7 L 0 8 L 0 9 L 1 9 L 2 9 L 3 9 L 4 9 L 5 9 L 6 9 L 7 9 L 8 9 L 9 9 L 9 10 L 10 10 L 10 11 L 10 12 L 10 13 L 9 13 L 9 14 L 8 14 L 7 14 L 6 14 L 5 14 L 4 14 L 4 13 L 3 13 L 3 12 L 2 12 L 1 12 L 0 12 L 0 13 L 0 14 L 0 15 L 1 15 L 1 16 L 2 16 L 2 17 L 3 17 L 4 17 L 5 17 L 6 17 L 7 17 L 8 17 L 9 17 L 10 17 L 11 17 L 11 16 L 12 16 L 12 15 L 13 15 L 13 14 L 13 13 L 13 12 L 13 11 L 13 10 L 13 9 L 13 8 L 12 8 L 12 7 L 11 7 L 11 6 L 10 6 L 9 6 L 8 6 L 7 6 L 6 6 L 5 6 L 4 6 L 3 6 L 3 5 L 3 4 L 3 3 L 4 3 L 5 3 L 6 3 L 7 3 L 8 3 L 9 3 L 10 3 L 11 3 L 12 3 L 13 3 L 13 2 L 13 1 L 13 0 L 12 0 L 11 0 L 10 0 L 9 0 L 8 0 L 7 0 L 6 0 L 5 0 L 4 0 L 3 0 L 2 0 L 1 0 L 0 0 z " />
</svg>
