<?xml version="1.0" encoding="UTF-8" standalone="no"?>
<svg
   width="130"
   height="170"
   viewBox="0 0 130 170"
   version="1.1"
   id="svg284"
   xmlns="http://www.w3.org/2000/svg"
   xmlns:svg="http://www.w3.org/2000/svg">
  <defs
     id="defs2" />
  <path
     id="rect4"
     d="M 20 0 L 20 10 L 10 10 L 10 20 L 0 20 L 0 30 L 0 40 L 0 50 L 0 60 L 0 70 L 0 80 L 0 90 L 0 100 L 0 110 L 0 120 L 0 130 L 0 140 L 0 150 L 0 160 L 0 170 L 10 170 L 20 170 L 30 170 L 30 160 L 30 150 L 30 140 L 30 130 L 30 120 L 30 110 L 30 100 L 40 100 L 50 100 L 60 100 L 70 100 L 80 100 L 90 100 L 100 100 L 100 110 L 100 120 L 100 130 L 100 140 L 100 150 L 100 160 L 100 170 L 110 170 L 120 170 L 130 170 L 130 160 L 130 150 L 130 140 L 130 130 L 130 120 L 130 110 L 130 100 L 130 90 L 130 80 L 130 70 L 130 60 L 130 50 L 130 40 L 130 30 L 130 20 L 120 20 L 120 10 L 110 10 L 110 0 L 100 0 L 90 0 L 80 0 L 70 0 L 60 0 L 50 0 L 40 0 L 30 0 L 20 0 z M 40 30 L 50 30 L 60 30 L 70 30 L 80 30 L 90 30 L 90 40 L 100 40 L 100 50 L 100 60 L 100 70 L 90 70 L 80 70 L 70 70 L 60 70 L 50 70 L 40 70 L 30 70 L 30 60 L 30 50 L 30 40 L 40 40 L 40 30 z " />
</svg>
