<?xml version="1.0" encoding="UTF-8" standalone="no"?>
<svg
   width="130"
   height="170"
   viewBox="0 0 130 170"
   version="1.1"
   id="svg230"
   xmlns="http://www.w3.org/2000/svg"
   xmlns:svg="http://www.w3.org/2000/svg">
  <defs
     id="defs2" />
  <path
     id="rect4"
     d="M 20 60 L 20 70 L 10 70 L 10 80 L 0 80 L 0 90 L 10 90 L 20 90 L 30 90 L 40 90 L 50 90 L 60 90 L 70 90 L 80 90 L 90 90 L 100 90 L 100 100 L 90 100 L 80 100 L 70 100 L 60 100 L 50 100 L 40 100 L 30 100 L 20 100 L 10 100 L 10 110 L 0 110 L 0 120 L 0 130 L 0 140 L 0 150 L 10 150 L 10 160 L 20 160 L 20 170 L 30 170 L 40 170 L 50 170 L 60 170 L 70 170 L 80 170 L 90 170 L 100 170 L 110 170 L 110 160 L 120 160 L 120 150 L 130 150 L 130 140 L 130 130 L 130 120 L 130 110 L 130 100 L 130 90 L 130 80 L 120 80 L 120 70 L 110 70 L 110 60 L 100 60 L 90 60 L 80 60 L 70 60 L 60 60 L 50 60 L 40 60 L 30 60 L 20 60 z M 30 130 L 40 130 L 50 130 L 60 130 L 70 130 L 80 130 L 90 130 L 100 130 L 100 140 L 90 140 L 80 140 L 70 140 L 60 140 L 50 140 L 40 140 L 30 140 L 30 130 z " />
</svg>
