<?xml version="1.0" encoding="UTF-8" standalone="no"?>
<svg
   width="13"
   height="17"
   viewBox="0 0 13 17"
   version="1.1"
   id="svg70"
   xmlns="http://www.w3.org/2000/svg"
   xmlns:svg="http://www.w3.org/2000/svg">
  <defs
     id="defs2" />
  <path
     id="rect4"
     d="M 3 0 L 3 1 L 3 2 L 4 2 L 4 3 L 5 3 L 5 4 L 4 4 L 4 5 L 3 5 L 3 6 L 3 7 L 4 7 L 5 7 L 5 6 L 6 6 L 6 5 L 7 5 L 7 6 L 8 6 L 8 7 L 9 7 L 10 7 L 10 6 L 10 5 L 9 5 L 9 4 L 8 4 L 8 3 L 9 3 L 9 2 L 10 2 L 10 1 L 10 0 L 9 0 L 8 0 L 8 1 L 7 1 L 7 2 L 6 2 L 6 1 L 5 1 L 5 0 L 4 0 L 3 0 z " />
</svg>
