<?xml version="1.0" encoding="UTF-8" standalone="no"?>
<svg
   width="130"
   height="170"
   viewBox="0 0 130 170"
   version="1.1"
   id="svg256"
   xmlns="http://www.w3.org/2000/svg"
   xmlns:svg="http://www.w3.org/2000/svg">
  <defs
     id="defs2" />
  <path
     id="rect4"
     d="M 0 40 L 0 50 L 0 60 L 0 70 L 0 80 L 0 90 L 0 100 L 0 110 L 0 120 L 0 130 L 0 140 L 0 150 L 0 160 L 0 170 L 10 170 L 20 170 L 30 170 L 40 170 L 50 170 L 60 170 L 70 170 L 80 170 L 90 170 L 100 170 L 110 170 L 120 170 L 130 170 L 130 160 L 130 150 L 120 150 L 110 150 L 100 150 L 90 150 L 80 150 L 70 150 L 60 150 L 50 150 L 40 150 L 30 150 L 20 150 L 20 140 L 20 130 L 20 120 L 20 110 L 20 100 L 20 90 L 20 80 L 20 70 L 20 60 L 30 60 L 40 60 L 50 60 L 60 60 L 70 60 L 80 60 L 90 60 L 100 60 L 110 60 L 110 70 L 110 80 L 110 90 L 110 100 L 110 110 L 110 120 L 100 120 L 100 110 L 100 100 L 100 90 L 100 80 L 100 70 L 90 70 L 80 70 L 70 70 L 60 70 L 50 70 L 40 70 L 40 80 L 30 80 L 30 90 L 30 100 L 30 110 L 30 120 L 30 130 L 40 130 L 40 140 L 50 140 L 60 140 L 70 140 L 80 140 L 90 140 L 100 140 L 110 140 L 120 140 L 130 140 L 130 130 L 130 120 L 130 110 L 130 100 L 130 90 L 130 80 L 130 70 L 130 60 L 130 50 L 130 40 L 120 40 L 110 40 L 100 40 L 90 40 L 80 40 L 70 40 L 60 40 L 50 40 L 40 40 L 30 40 L 20 40 L 10 40 L 0 40 z M 50 90 L 60 90 L 70 90 L 80 90 L 80 100 L 80 110 L 80 120 L 70 120 L 60 120 L 50 120 L 50 110 L 50 100 L 50 90 z " />
</svg>
