<?xml version="1.0" encoding="UTF-8" standalone="no"?>
<svg
   width="13"
   height="17"
   viewBox="0 0 13 17"
   version="1.1"
   id="svg146"
   xmlns="http://www.w3.org/2000/svg"
   xmlns:svg="http://www.w3.org/2000/svg">
  <defs
     id="defs2" />
  <path
     id="rect4"
     d="M 0 0 L 0 1 L 0 2 L 0 3 L 0 4 L 0 5 L 1 5 L 1 6 L 2 6 L 2 7 L 3 7 L 3 8 L 4 8 L 4 9 L 5 9 L 5 10 L 6 10 L 6 11 L 7 11 L 7 12 L 8 12 L 8 13 L 9 13 L 9 14 L 10 14 L 10 15 L 10 16 L 10 17 L 11 17 L 12 17 L 13 17 L 13 16 L 13 15 L 13 14 L 13 13 L 13 12 L 12 12 L 12 11 L 11 11 L 11 10 L 10 10 L 10 9 L 9 9 L 9 8 L 8 8 L 8 7 L 7 7 L 7 6 L 6 6 L 6 5 L 5 5 L 5 4 L 4 4 L 4 3 L 3 3 L 3 2 L 3 1 L 3 0 L 2 0 L 1 0 L 0 0 z " />
</svg>
