<?xml version="1.0" encoding="UTF-8" standalone="no"?>
<svg
   width="13"
   height="17"
   viewBox="0 0 13 17"
   version="1.1"
   id="svg182"
   xmlns="http://www.w3.org/2000/svg"
   xmlns:svg="http://www.w3.org/2000/svg">
  <defs
     id="defs2" />
  <path
     id="rect4"
     d="M 2 6 L 2 7 L 1 7 L 1 8 L 0 8 L 0 9 L 0 10 L 0 11 L 0 12 L 0 13 L 0 14 L 0 15 L 1 15 L 1 16 L 2 16 L 2 17 L 3 17 L 4 17 L 5 17 L 6 17 L 7 17 L 8 17 L 9 17 L 10 17 L 11 17 L 12 17 L 13 17 L 13 16 L 13 15 L 13 14 L 12 14 L 11 14 L 10 14 L 9 14 L 8 14 L 7 14 L 6 14 L 5 14 L 4 14 L 4 13 L 3 13 L 3 12 L 3 11 L 3 10 L 4 10 L 4 9 L 5 9 L 6 9 L 7 9 L 8 9 L 9 9 L 10 9 L 11 9 L 12 9 L 13 9 L 13 8 L 13 7 L 13 6 L 12 6 L 11 6 L 10 6 L 9 6 L 8 6 L 7 6 L 6 6 L 5 6 L 4 6 L 3 6 L 2 6 z " />
</svg>
