<?xml version="1.0" encoding="UTF-8" standalone="no"?>
<svg
   width="13"
   height="17"
   viewBox="0 0 13 17"
   version="1.1"
   id="svg96"
   xmlns="http://www.w3.org/2000/svg"
   xmlns:svg="http://www.w3.org/2000/svg">
  <defs
     id="defs2" />
  <path
     id="rect4"
     d="M 6 0 L 6 1 L 5 1 L 5 2 L 4 2 L 4 3 L 3 3 L 3 4 L 2 4 L 2 5 L 1 5 L 1 6 L 0 6 L 0 7 L 0 8 L 1 8 L 2 8 L 3 8 L 3 7 L 4 7 L 4 6 L 5 6 L 5 5 L 6 5 L 6 4 L 7 4 L 7 5 L 8 5 L 8 6 L 9 6 L 9 7 L 10 7 L 10 8 L 11 8 L 12 8 L 13 8 L 13 7 L 13 6 L 12 6 L 12 5 L 11 5 L 11 4 L 10 4 L 10 3 L 9 3 L 9 2 L 8 2 L 8 1 L 7 1 L 7 0 L 6 0 z " />
</svg>
