<?xml version="1.0" encoding="UTF-8" standalone="no"?>
<svg
   width="13"
   height="17"
   viewBox="0 0 13 17"
   version="1.1"
   id="svg138"
   xmlns="http://www.w3.org/2000/svg"
   xmlns:svg="http://www.w3.org/2000/svg">
  <defs
     id="defs2" />
  <path
     id="rect4"
     d="M 6 0 L 6 1 L 5 1 L 5 2 L 4 2 L 4 3 L 4 4 L 4 5 L 4 6 L 4 7 L 3 7 L 3 8 L 3 9 L 3 10 L 4 10 L 4 11 L 4 12 L 4 13 L 4 14 L 4 15 L 5 15 L 5 16 L 6 16 L 6 17 L 7 17 L 8 17 L 9 17 L 10 17 L 10 16 L 10 15 L 10 14 L 9 14 L 8 14 L 8 13 L 7 13 L 7 12 L 7 11 L 7 10 L 7 9 L 6 9 L 6 8 L 7 8 L 7 7 L 7 6 L 7 5 L 7 4 L 8 4 L 8 3 L 9 3 L 10 3 L 10 2 L 10 1 L 10 0 L 9 0 L 8 0 L 7 0 L 6 0 z " />
</svg>
