<?xml version="1.0" encoding="UTF-8" standalone="no"?>
<svg
   width="130"
   height="170"
   viewBox="0 0 130 170"
   version="1.1"
   id="svg244"
   xmlns="http://www.w3.org/2000/svg"
   xmlns:svg="http://www.w3.org/2000/svg">
  <defs
     id="defs2" />
  <path
     id="rect4"
     d="M 100 0 L 100 10 L 100 20 L 100 30 L 100 40 L 100 50 L 100 60 L 90 60 L 80 60 L 70 60 L 60 60 L 50 60 L 40 60 L 30 60 L 20 60 L 20 70 L 10 70 L 10 80 L 0 80 L 0 90 L 0 100 L 0 110 L 0 120 L 0 130 L 0 140 L 0 150 L 10 150 L 10 160 L 20 160 L 20 170 L 30 170 L 40 170 L 50 170 L 60 170 L 70 170 L 80 170 L 90 170 L 100 170 L 110 170 L 120 170 L 130 170 L 130 160 L 130 150 L 130 140 L 130 130 L 130 120 L 130 110 L 130 100 L 130 90 L 130 80 L 130 70 L 130 60 L 130 50 L 130 40 L 130 30 L 130 20 L 130 10 L 130 0 L 120 0 L 110 0 L 100 0 z M 30 90 L 40 90 L 50 90 L 60 90 L 70 90 L 80 90 L 90 90 L 100 90 L 100 100 L 100 110 L 100 120 L 100 130 L 100 140 L 90 140 L 80 140 L 70 140 L 60 140 L 50 140 L 40 140 L 30 140 L 30 130 L 30 120 L 30 110 L 30 100 L 30 90 z " />
</svg>
