<?xml version="1.0" encoding="UTF-8" standalone="no"?>
<svg
   width="130"
   height="170"
   viewBox="0 0 130 170"
   version="1.1"
   id="svg282"
   xmlns="http://www.w3.org/2000/svg"
   xmlns:svg="http://www.w3.org/2000/svg">
  <defs
     id="defs2" />
  <path
     id="rect4"
     d="M 50 0 L 50 10 L 50 20 L 40 20 L 30 20 L 20 20 L 20 30 L 10 30 L 10 40 L 0 40 L 0 50 L 0 60 L 0 70 L 0 80 L 10 80 L 10 90 L 20 90 L 20 100 L 30 100 L 40 100 L 50 100 L 50 110 L 50 120 L 40 120 L 30 120 L 20 120 L 10 120 L 0 120 L 0 130 L 10 130 L 10 140 L 20 140 L 20 150 L 30 150 L 40 150 L 50 150 L 50 160 L 50 170 L 60 170 L 70 170 L 80 170 L 80 160 L 80 150 L 90 150 L 100 150 L 110 150 L 110 140 L 120 140 L 120 130 L 130 130 L 130 120 L 130 110 L 130 100 L 130 90 L 120 90 L 120 80 L 110 80 L 110 70 L 100 70 L 90 70 L 80 70 L 80 60 L 80 50 L 90 50 L 100 50 L 110 50 L 120 50 L 130 50 L 130 40 L 120 40 L 120 30 L 110 30 L 110 20 L 100 20 L 90 20 L 80 20 L 80 10 L 80 0 L 70 0 L 60 0 L 50 0 z M 40 50 L 50 50 L 50 60 L 50 70 L 40 70 L 40 60 L 40 50 z M 80 100 L 90 100 L 90 110 L 90 120 L 80 120 L 80 110 L 80 100 z " />
</svg>
