<?xml version="1.0" encoding="UTF-8" standalone="no"?>
<svg
   width="13"
   height="17"
   viewBox="0 0 13 17"
   version="1.1"
   id="svg160"
   xmlns="http://www.w3.org/2000/svg"
   xmlns:svg="http://www.w3.org/2000/svg">
  <defs
     id="defs2" />
  <path
     id="rect4"
     d="M 0 4 L 0 5 L 0 6 L 0 7 L 1 7 L 2 7 L 3 7 L 4 7 L 5 7 L 6 7 L 7 7 L 8 7 L 9 7 L 10 7 L 11 7 L 12 7 L 13 7 L 13 6 L 13 5 L 13 4 L 12 4 L 11 4 L 10 4 L 9 4 L 8 4 L 7 4 L 6 4 L 5 4 L 4 4 L 3 4 L 2 4 L 1 4 L 0 4 z M 0 10 L 0 11 L 0 12 L 0 13 L 1 13 L 2 13 L 3 13 L 4 13 L 5 13 L 6 13 L 7 13 L 8 13 L 9 13 L 10 13 L 11 13 L 12 13 L 13 13 L 13 12 L 13 11 L 13 10 L 12 10 L 11 10 L 10 10 L 9 10 L 8 10 L 7 10 L 6 10 L 5 10 L 4 10 L 3 10 L 2 10 L 1 10 L 0 10 z " />
</svg>
