<?xml version="1.0" encoding="UTF-8" standalone="no"?>
<svg
   width="13"
   height="17"
   viewBox="0 0 13 17"
   version="1.1"
   id="svg192"
   xmlns="http://www.w3.org/2000/svg"
   xmlns:svg="http://www.w3.org/2000/svg">
  <defs
     id="defs2" />
  <path
     id="rect4"
     d="M 7 0 L 7 1 L 6 1 L 6 2 L 5 2 L 5 3 L 5 4 L 5 5 L 5 6 L 4 6 L 3 6 L 2 6 L 1 6 L 0 6 L 0 7 L 0 8 L 0 9 L 1 9 L 2 9 L 3 9 L 4 9 L 5 9 L 5 10 L 5 11 L 5 12 L 5 13 L 5 14 L 5 15 L 5 16 L 5 17 L 6 17 L 7 17 L 8 17 L 8 16 L 8 15 L 8 14 L 8 13 L 8 12 L 8 11 L 8 10 L 8 9 L 9 9 L 10 9 L 11 9 L 12 9 L 13 9 L 13 8 L 13 7 L 13 6 L 12 6 L 11 6 L 10 6 L 9 6 L 8 6 L 8 5 L 8 4 L 9 4 L 9 3 L 10 3 L 11 3 L 12 3 L 13 3 L 13 2 L 13 1 L 13 0 L 12 0 L 11 0 L 10 0 L 9 0 L 8 0 L 7 0 z " />
</svg>
