<?xml version="1.0" encoding="UTF-8" standalone="no"?>
<svg
   width="13"
   height="17"
   viewBox="0 0 13 17"
   version="1.1"
   id="svg126"
   xmlns="http://www.w3.org/2000/svg"
   xmlns:svg="http://www.w3.org/2000/svg">
  <defs
     id="defs2" />
  <path
     id="rect4"
     d="M 2 0 L 2 1 L 2 2 L 2 3 L 3 3 L 3 4 L 4 4 L 4 5 L 5 5 L 5 6 L 6 6 L 6 7 L 7 7 L 7 8 L 8 8 L 8 9 L 7 9 L 7 10 L 6 10 L 6 11 L 5 11 L 5 12 L 4 12 L 4 13 L 3 13 L 3 14 L 2 14 L 2 15 L 2 16 L 2 17 L 3 17 L 4 17 L 4 16 L 5 16 L 5 15 L 6 15 L 6 14 L 7 14 L 7 13 L 8 13 L 8 12 L 9 12 L 9 11 L 10 11 L 10 10 L 11 10 L 11 9 L 11 8 L 11 7 L 10 7 L 10 6 L 9 6 L 9 5 L 8 5 L 8 4 L 7 4 L 7 3 L 6 3 L 6 2 L 5 2 L 5 1 L 4 1 L 4 0 L 3 0 L 2 0 z " />
</svg>
