<?xml version="1.0" encoding="UTF-8" standalone="no"?>
<svg
   width="13"
   height="17"
   viewBox="0 0 13 17"
   version="1.1"
   id="svg210"
   xmlns="http://www.w3.org/2000/svg"
   xmlns:svg="http://www.w3.org/2000/svg">
  <defs
     id="defs2" />
  <path
     id="rect4"
     d="M 0 0 L 0 1 L 0 2 L 0 3 L 0 4 L 0 5 L 0 6 L 0 7 L 0 8 L 0 9 L 0 10 L 0 11 L 0 12 L 0 13 L 0 14 L 0 15 L 0 16 L 0 17 L 1 17 L 2 17 L 3 17 L 3 16 L 3 15 L 3 14 L 3 13 L 3 12 L 3 11 L 3 10 L 3 9 L 4 9 L 5 9 L 6 9 L 7 9 L 8 9 L 9 9 L 9 10 L 10 10 L 10 11 L 10 12 L 10 13 L 10 14 L 10 15 L 10 16 L 10 17 L 11 17 L 12 17 L 13 17 L 13 16 L 13 15 L 13 14 L 13 13 L 13 12 L 13 11 L 13 10 L 13 9 L 13 8 L 12 8 L 12 7 L 11 7 L 11 6 L 10 6 L 9 6 L 8 6 L 7 6 L 6 6 L 5 6 L 4 6 L 3 6 L 3 5 L 3 4 L 3 3 L 3 2 L 3 1 L 3 0 L 2 0 L 1 0 L 0 0 z " />
</svg>
