<?xml version="1.0" encoding="UTF-8" standalone="no"?>
<svg
   width="130"
   height="170"
   viewBox="0 0 130 170"
   version="1.1"
   id="svg292"
   xmlns="http://www.w3.org/2000/svg"
   xmlns:svg="http://www.w3.org/2000/svg">
  <defs
     id="defs2" />
  <path
     id="rect4"
     d="M 20 0 L 20 10 L 20 20 L 20 30 L 20 40 L 10 40 L 0 40 L 0 50 L 0 60 L 0 70 L 10 70 L 20 70 L 20 80 L 20 90 L 20 100 L 10 100 L 0 100 L 0 110 L 0 120 L 0 130 L 10 130 L 20 130 L 20 140 L 20 150 L 20 160 L 20 170 L 30 170 L 40 170 L 50 170 L 50 160 L 50 150 L 50 140 L 50 130 L 60 130 L 70 130 L 80 130 L 80 140 L 80 150 L 80 160 L 80 170 L 90 170 L 100 170 L 110 170 L 110 160 L 110 150 L 110 140 L 110 130 L 120 130 L 130 130 L 130 120 L 130 110 L 130 100 L 120 100 L 110 100 L 110 90 L 110 80 L 110 70 L 120 70 L 130 70 L 130 60 L 130 50 L 130 40 L 120 40 L 110 40 L 110 30 L 110 20 L 110 10 L 110 0 L 100 0 L 90 0 L 80 0 L 80 10 L 80 20 L 80 30 L 80 40 L 70 40 L 60 40 L 50 40 L 50 30 L 50 20 L 50 10 L 50 0 L 40 0 L 30 0 L 20 0 z M 50 70 L 60 70 L 70 70 L 80 70 L 80 80 L 80 90 L 80 100 L 70 100 L 60 100 L 50 100 L 50 90 L 50 80 L 50 70 z " />
</svg>
