<?xml version="1.0" encoding="UTF-8" standalone="no"?>
<svg
   width="13"
   height="17"
   viewBox="0 0 13 17"
   version="1.1"
   id="svg220"
   xmlns="http://www.w3.org/2000/svg"
   xmlns:svg="http://www.w3.org/2000/svg">
  <defs
     id="defs2" />
  <path
     id="rect4"
     d="M 0 0 L 0 1 L 0 2 L 0 3 L 0 4 L 0 5 L 0 6 L 0 7 L 0 8 L 0 9 L 0 10 L 0 11 L 0 12 L 0 13 L 0 14 L 0 15 L 0 16 L 0 17 L 1 17 L 2 17 L 3 17 L 3 16 L 3 15 L 3 14 L 3 13 L 4 13 L 5 13 L 6 13 L 7 13 L 7 14 L 8 14 L 8 15 L 9 15 L 9 16 L 10 16 L 10 17 L 11 17 L 12 17 L 13 17 L 13 16 L 13 15 L 13 14 L 12 14 L 12 13 L 11 13 L 11 12 L 10 12 L 10 11 L 11 11 L 11 10 L 12 10 L 12 9 L 13 9 L 13 8 L 13 7 L 13 6 L 12 6 L 11 6 L 10 6 L 10 7 L 9 7 L 9 8 L 8 8 L 8 9 L 7 9 L 7 10 L 6 10 L 5 10 L 4 10 L 3 10 L 3 9 L 3 8 L 3 7 L 3 6 L 3 5 L 3 4 L 3 3 L 3 2 L 3 1 L 3 0 L 2 0 L 1 0 L 0 0 z " />
</svg>
