<?xml version="1.0" encoding="UTF-8" standalone="no"?>
<svg
   width="13"
   height="17"
   viewBox="0 0 13 17"
   version="1.1"
   id="svg116"
   xmlns="http://www.w3.org/2000/svg"
   xmlns:svg="http://www.w3.org/2000/svg">
  <defs
     id="defs2" />
  <path
     id="rect4"
     d="M 4 0 L 4 1 L 4 2 L 4 3 L 4 4 L 4 5 L 4 6 L 4 7 L 4 8 L 4 9 L 4 10 L 4 11 L 4 12 L 4 13 L 4 14 L 4 15 L 4 16 L 5 16 L 5 17 L 6 17 L 7 17 L 8 17 L 9 17 L 9 16 L 9 15 L 9 14 L 8 14 L 7 14 L 7 13 L 7 12 L 7 11 L 7 10 L 7 9 L 7 8 L 7 7 L 7 6 L 7 5 L 7 4 L 7 3 L 7 2 L 7 1 L 7 0 L 6 0 L 5 0 L 4 0 z " />
</svg>
