<?xml version="1.0" encoding="UTF-8" standalone="no"?>
<svg
   width="13"
   height="17"
   viewBox="0 0 13 17"
   version="1.1"
   id="svg126"
   xmlns="http://www.w3.org/2000/svg"
   xmlns:svg="http://www.w3.org/2000/svg">
  <defs
     id="defs2" />
  <path
     id="rect4"
     d="M 9 0 L 9 1 L 8 1 L 8 2 L 7 2 L 7 3 L 6 3 L 6 4 L 5 4 L 5 5 L 4 5 L 4 6 L 3 6 L 3 7 L 2 7 L 2 8 L 2 9 L 2 10 L 3 10 L 3 11 L 4 11 L 4 12 L 5 12 L 5 13 L 6 13 L 6 14 L 7 14 L 7 15 L 8 15 L 8 16 L 9 16 L 9 17 L 10 17 L 11 17 L 11 16 L 11 15 L 11 14 L 10 14 L 10 13 L 9 13 L 9 12 L 8 12 L 8 11 L 7 11 L 7 10 L 6 10 L 6 9 L 5 9 L 5 8 L 6 8 L 6 7 L 7 7 L 7 6 L 8 6 L 8 5 L 9 5 L 9 4 L 10 4 L 10 3 L 11 3 L 11 2 L 11 1 L 11 0 L 10 0 L 9 0 z " />
</svg>
