<?xml version="1.0" encoding="UTF-8" standalone="no"?>
<svg
   width="13"
   height="17"
   viewBox="0 0 13 17"
   version="1.1"
   id="svg130"
   xmlns="http://www.w3.org/2000/svg"
   xmlns:svg="http://www.w3.org/2000/svg">
  <defs
     id="defs2" />
  <path
     id="rect4"
     d="M 6 0 L 6 1 L 5 1 L 5 2 L 4 2 L 4 3 L 3 3 L 3 4 L 3 5 L 3 6 L 3 7 L 3 8 L 3 9 L 3 10 L 3 11 L 3 12 L 3 13 L 3 14 L 4 14 L 4 15 L 5 15 L 5 16 L 6 16 L 6 17 L 7 17 L 8 17 L 9 17 L 9 16 L 9 15 L 9 14 L 8 14 L 8 13 L 7 13 L 7 12 L 6 12 L 6 11 L 6 10 L 6 9 L 6 8 L 6 7 L 6 6 L 6 5 L 7 5 L 7 4 L 8 4 L 8 3 L 9 3 L 9 2 L 9 1 L 9 0 L 8 0 L 7 0 L 6 0 z " />
</svg>
