<?xml version="1.0" encoding="UTF-8" standalone="no"?>
<svg
   width="13"
   height="17"
   viewBox="0 0 13 17"
   version="1.1"
   id="svg130"
   xmlns="http://www.w3.org/2000/svg"
   xmlns:svg="http://www.w3.org/2000/svg">
  <defs
     id="defs2" />
  <path
     id="rect4"
     d="M 4 0 L 4 1 L 4 2 L 4 3 L 5 3 L 5 4 L 6 4 L 6 5 L 7 5 L 7 6 L 7 7 L 7 8 L 7 9 L 7 10 L 7 11 L 7 12 L 6 12 L 6 13 L 5 13 L 5 14 L 4 14 L 4 15 L 4 16 L 4 17 L 5 17 L 6 17 L 7 17 L 7 16 L 8 16 L 8 15 L 9 15 L 9 14 L 10 14 L 10 13 L 10 12 L 10 11 L 10 10 L 10 9 L 10 8 L 10 7 L 10 6 L 10 5 L 10 4 L 10 3 L 9 3 L 9 2 L 8 2 L 8 1 L 7 1 L 7 0 L 6 0 L 5 0 L 4 0 z " />
</svg>
