<?xml version="1.0" encoding="UTF-8" standalone="no"?>
<svg
   width="130"
   height="170"
   viewBox="0 0 130 170"
   version="1.1"
   id="svg258"
   xmlns="http://www.w3.org/2000/svg"
   xmlns:svg="http://www.w3.org/2000/svg">
  <defs
     id="defs2" />
  <path
     id="rect4"
     d="M 0 0 L 0 10 L 0 20 L 0 30 L 0 40 L 0 50 L 0 60 L 10 60 L 20 60 L 30 60 L 40 60 L 50 60 L 50 50 L 50 40 L 50 30 L 50 20 L 50 10 L 50 0 L 40 0 L 30 0 L 20 0 L 10 0 L 0 0 z M 100 0 L 100 10 L 100 20 L 100 30 L 90 30 L 90 40 L 80 40 L 80 50 L 70 50 L 70 60 L 60 60 L 60 70 L 50 70 L 50 80 L 40 80 L 40 90 L 30 90 L 30 100 L 20 100 L 20 110 L 10 110 L 10 120 L 0 120 L 0 130 L 0 140 L 0 150 L 0 160 L 0 170 L 10 170 L 20 170 L 30 170 L 30 160 L 30 150 L 30 140 L 40 140 L 40 130 L 50 130 L 50 120 L 60 120 L 60 110 L 70 110 L 70 100 L 80 100 L 80 90 L 90 90 L 90 80 L 100 80 L 100 70 L 110 70 L 110 60 L 120 60 L 120 50 L 130 50 L 130 40 L 130 30 L 130 20 L 130 10 L 130 0 L 120 0 L 110 0 L 100 0 z M 20 20 L 30 20 L 30 30 L 30 40 L 20 40 L 20 30 L 20 20 z M 80 110 L 80 120 L 80 130 L 80 140 L 80 150 L 80 160 L 80 170 L 90 170 L 100 170 L 110 170 L 120 170 L 130 170 L 130 160 L 130 150 L 130 140 L 130 130 L 130 120 L 130 110 L 120 110 L 110 110 L 100 110 L 90 110 L 80 110 z M 100 130 L 110 130 L 110 140 L 110 150 L 100 150 L 100 140 L 100 130 z " />
</svg>
