<?xml version="1.0" encoding="UTF-8" standalone="no"?>
<svg
   width="13"
   height="17"
   viewBox="0 0 13 17"
   version="1.1"
   id="svg142"
   xmlns="http://www.w3.org/2000/svg"
   xmlns:svg="http://www.w3.org/2000/svg">
  <defs
     id="defs2" />
  <path
     id="rect4"
     d="M 5 2 L 5 3 L 5 4 L 5 5 L 5 6 L 5 7 L 4 7 L 3 7 L 2 7 L 1 7 L 0 7 L 0 8 L 0 9 L 0 10 L 1 10 L 2 10 L 3 10 L 4 10 L 5 10 L 5 11 L 5 12 L 5 13 L 5 14 L 5 15 L 6 15 L 7 15 L 8 15 L 8 14 L 8 13 L 8 12 L 8 11 L 8 10 L 9 10 L 10 10 L 11 10 L 12 10 L 13 10 L 13 9 L 13 8 L 13 7 L 12 7 L 11 7 L 10 7 L 9 7 L 8 7 L 8 6 L 8 5 L 8 4 L 8 3 L 8 2 L 7 2 L 6 2 L 5 2 z " />
</svg>
