<?xml version="1.0" encoding="UTF-8" standalone="no"?>
<svg
   width="13"
   height="17"
   viewBox="0 0 13 17"
   version="1.1"
   id="svg184"
   xmlns="http://www.w3.org/2000/svg"
   xmlns:svg="http://www.w3.org/2000/svg">
  <defs
     id="defs2" />
  <path
     id="rect4"
     d="M 2 0 L 2 1 L 1 1 L 1 2 L 0 2 L 0 3 L 0 4 L 0 5 L 1 5 L 2 5 L 3 5 L 3 4 L 4 4 L 4 3 L 5 3 L 6 3 L 7 3 L 8 3 L 9 3 L 9 4 L 10 4 L 10 5 L 10 6 L 9 6 L 9 7 L 8 7 L 8 8 L 7 8 L 7 9 L 6 9 L 6 10 L 5 10 L 5 11 L 5 12 L 5 13 L 6 13 L 7 13 L 8 13 L 8 12 L 9 12 L 9 11 L 10 11 L 10 10 L 11 10 L 11 9 L 12 9 L 12 8 L 13 8 L 13 7 L 13 6 L 13 5 L 13 4 L 13 3 L 13 2 L 12 2 L 12 1 L 11 1 L 11 0 L 10 0 L 9 0 L 8 0 L 7 0 L 6 0 L 5 0 L 4 0 L 3 0 L 2 0 z M 5 14 L 5 15 L 5 16 L 5 17 L 6 17 L 7 17 L 8 17 L 8 16 L 8 15 L 8 14 L 7 14 L 6 14 L 5 14 z " />
</svg>
