<?xml version="1.0" encoding="UTF-8" standalone="no"?>
<svg
   width="13"
   height="17"
   viewBox="0 0 13 17"
   version="1.1"
   id="svg64"
   xmlns="http://www.w3.org/2000/svg"
   xmlns:svg="http://www.w3.org/2000/svg">
  <defs
     id="defs2" />
  <path
     id="rect4"
     d="M 0 0 L 0 1 L 0 2 L 0 3 L 0 4 L 0 5 L 1 5 L 2 5 L 3 5 L 3 4 L 3 3 L 3 2 L 3 1 L 3 0 L 2 0 L 1 0 L 0 0 z M 6 0 L 6 1 L 6 2 L 6 3 L 6 4 L 6 5 L 7 5 L 8 5 L 9 5 L 9 4 L 9 3 L 9 2 L 9 1 L 9 0 L 8 0 L 7 0 L 6 0 z " />
</svg>
