<?xml version="1.0" encoding="UTF-8" standalone="no"?>
<svg
   width="13"
   height="17"
   viewBox="0 0 13 17"
   version="1.1"
   id="svg138"
   xmlns="http://www.w3.org/2000/svg"
   xmlns:svg="http://www.w3.org/2000/svg">
  <defs
     id="defs2" />
  <path
     id="rect4"
     d="M 0 6 L 0 7 L 0 8 L 0 9 L 0 10 L 0 11 L 0 12 L 0 13 L 0 14 L 0 15 L 0 16 L 0 17 L 1 17 L 2 17 L 3 17 L 3 16 L 3 15 L 3 14 L 3 13 L 3 12 L 3 11 L 4 11 L 4 10 L 5 10 L 5 9 L 6 9 L 7 9 L 8 9 L 9 9 L 10 9 L 10 10 L 11 10 L 11 11 L 12 11 L 13 11 L 13 10 L 13 9 L 13 8 L 12 8 L 12 7 L 11 7 L 11 6 L 10 6 L 9 6 L 8 6 L 7 6 L 6 6 L 5 6 L 4 6 L 4 7 L 3 7 L 3 6 L 2 6 L 1 6 L 0 6 z " />
</svg>
