<?xml version="1.0" encoding="UTF-8" standalone="no"?>
<svg
   width="13"
   height="17"
   viewBox="0 0 13 17"
   version="1.1"
   id="svg58"
   xmlns="http://www.w3.org/2000/svg"
   xmlns:svg="http://www.w3.org/2000/svg">
  <defs
     id="defs2" />
  <path
     id="rect4"
     d="M 5 3 L 5 4 L 5 5 L 5 6 L 6 6 L 7 6 L 8 6 L 8 5 L 8 4 L 8 3 L 7 3 L 6 3 L 5 3 z M 5 11 L 5 12 L 5 13 L 5 14 L 5 15 L 5 16 L 5 17 L 6 17 L 7 17 L 8 17 L 8 16 L 8 15 L 8 14 L 8 13 L 8 12 L 8 11 L 7 11 L 6 11 L 5 11 z " />
</svg>
