<?xml version="1.0" encoding="UTF-8" standalone="no"?>
<svg
   width="13"
   height="17"
   viewBox="0 0 13 17"
   version="1.1"
   id="svg146"
   xmlns="http://www.w3.org/2000/svg"
   xmlns:svg="http://www.w3.org/2000/svg">
  <defs
     id="defs2" />
  <path
     id="rect4"
     d="M 10 0 L 10 1 L 10 2 L 10 3 L 9 3 L 9 4 L 8 4 L 8 5 L 7 5 L 7 6 L 6 6 L 6 7 L 5 7 L 5 8 L 4 8 L 4 9 L 3 9 L 3 10 L 2 10 L 2 11 L 1 11 L 1 12 L 0 12 L 0 13 L 0 14 L 0 15 L 0 16 L 0 17 L 1 17 L 2 17 L 3 17 L 3 16 L 3 15 L 3 14 L 4 14 L 4 13 L 5 13 L 5 12 L 6 12 L 6 11 L 7 11 L 7 10 L 8 10 L 8 9 L 9 9 L 9 8 L 10 8 L 10 7 L 11 7 L 11 6 L 12 6 L 12 5 L 13 5 L 13 4 L 13 3 L 13 2 L 13 1 L 13 0 L 12 0 L 11 0 L 10 0 z " />
</svg>
