<?xml version="1.0" encoding="UTF-8" standalone="no"?>
<svg
   width="13"
   height="17"
   viewBox="0 0 13 17"
   version="1.1"
   id="svg166"
   xmlns="http://www.w3.org/2000/svg"
   xmlns:svg="http://www.w3.org/2000/svg">
  <defs
     id="defs2" />
  <path
     id="rect4"
     d="M 3 0 L 3 1 L 3 2 L 3 3 L 3 4 L 3 5 L 3 6 L 2 6 L 1 6 L 0 6 L 0 7 L 0 8 L 0 9 L 1 9 L 2 9 L 3 9 L 3 10 L 3 11 L 3 12 L 3 13 L 3 14 L 3 15 L 4 15 L 4 16 L 5 16 L 5 17 L 6 17 L 7 17 L 8 17 L 9 17 L 10 17 L 11 17 L 11 16 L 11 15 L 11 14 L 10 14 L 9 14 L 8 14 L 7 14 L 6 14 L 6 13 L 6 12 L 6 11 L 6 10 L 6 9 L 7 9 L 8 9 L 9 9 L 9 8 L 9 7 L 9 6 L 8 6 L 7 6 L 6 6 L 6 5 L 6 4 L 6 3 L 6 2 L 6 1 L 6 0 L 5 0 L 4 0 L 3 0 z " />
</svg>
