<?xml version="1.0" encoding="UTF-8" standalone="no"?>
<svg
   width="13"
   height="17"
   viewBox="0 0 13 17"
   version="1.1"
   id="svg186"
   xmlns="http://www.w3.org/2000/svg"
   xmlns:svg="http://www.w3.org/2000/svg">
  <defs
     id="defs2" />
  <path
     id="rect4"
     d="M 0 0 L 0 1 L 0 2 L 0 3 L 0 4 L 0 5 L 1 5 L 1 6 L 2 6 L 2 7 L 3 7 L 3 8 L 4 8 L 4 9 L 5 9 L 5 10 L 5 11 L 5 12 L 5 13 L 5 14 L 5 15 L 5 16 L 5 17 L 6 17 L 7 17 L 8 17 L 8 16 L 8 15 L 8 14 L 8 13 L 8 12 L 8 11 L 8 10 L 8 9 L 9 9 L 9 8 L 10 8 L 10 7 L 11 7 L 11 6 L 12 6 L 12 5 L 13 5 L 13 4 L 13 3 L 13 2 L 13 1 L 13 0 L 12 0 L 11 0 L 10 0 L 10 1 L 10 2 L 10 3 L 9 3 L 9 4 L 8 4 L 8 5 L 7 5 L 7 6 L 6 6 L 6 5 L 5 5 L 5 4 L 4 4 L 4 3 L 3 3 L 3 2 L 3 1 L 3 0 L 2 0 L 1 0 L 0 0 z " />
</svg>
