<?xml version="1.0" encoding="UTF-8" standalone="no"?>
<svg
   width="13"
   height="17"
   viewBox="0 0 13 17"
   version="1.1"
   id="svg262"
   xmlns="http://www.w3.org/2000/svg"
   xmlns:svg="http://www.w3.org/2000/svg">
  <defs
     id="defs2" />
  <path
     id="rect4"
     d="M 0 0 L 0 1 L 0 2 L 0 3 L 0 4 L 0 5 L 0 6 L 0 7 L 0 8 L 0 9 L 1 9 L 1 10 L 2 10 L 2 11 L 3 11 L 4 11 L 5 11 L 6 11 L 7 11 L 8 11 L 9 11 L 10 11 L 10 12 L 10 13 L 9 13 L 9 14 L 8 14 L 7 14 L 6 14 L 5 14 L 4 14 L 3 14 L 2 14 L 1 14 L 0 14 L 0 15 L 1 15 L 1 16 L 2 16 L 2 17 L 3 17 L 4 17 L 5 17 L 6 17 L 7 17 L 8 17 L 9 17 L 10 17 L 11 17 L 11 16 L 12 16 L 12 15 L 13 15 L 13 14 L 13 13 L 13 12 L 13 11 L 13 10 L 13 9 L 13 8 L 13 7 L 13 6 L 13 5 L 13 4 L 13 3 L 13 2 L 13 1 L 13 0 L 12 0 L 11 0 L 10 0 L 10 1 L 10 2 L 10 3 L 10 4 L 10 5 L 10 6 L 10 7 L 9 7 L 9 8 L 8 8 L 7 8 L 6 8 L 5 8 L 4 8 L 4 7 L 3 7 L 3 6 L 3 5 L 3 4 L 3 3 L 3 2 L 3 1 L 3 0 L 2 0 L 1 0 L 0 0 z " />
</svg>
