<?xml version="1.0" encoding="UTF-8" standalone="no"?>
<svg
   width="13"
   height="17"
   viewBox="0 0 13 17"
   version="1.1"
   id="svg246"
   xmlns="http://www.w3.org/2000/svg"
   xmlns:svg="http://www.w3.org/2000/svg">
  <defs
     id="defs2" />
  <path
     id="rect4"
     d="M 0 0 L 0 1 L 0 2 L 0 3 L 1 3 L 2 3 L 3 3 L 4 3 L 5 3 L 6 3 L 7 3 L 8 3 L 9 3 L 10 3 L 10 4 L 9 4 L 9 5 L 8 5 L 8 6 L 7 6 L 7 7 L 6 7 L 6 8 L 5 8 L 5 9 L 4 9 L 4 10 L 3 10 L 3 11 L 2 11 L 2 12 L 1 12 L 1 13 L 0 13 L 0 14 L 0 15 L 0 16 L 0 17 L 1 17 L 2 17 L 3 17 L 4 17 L 5 17 L 6 17 L 7 17 L 8 17 L 9 17 L 10 17 L 11 17 L 12 17 L 13 17 L 13 16 L 13 15 L 13 14 L 12 14 L 11 14 L 10 14 L 9 14 L 8 14 L 7 14 L 6 14 L 5 14 L 4 14 L 4 13 L 5 13 L 5 12 L 6 12 L 6 11 L 7 11 L 7 10 L 8 10 L 8 9 L 9 9 L 9 8 L 10 8 L 10 7 L 11 7 L 11 6 L 12 6 L 12 5 L 13 5 L 13 4 L 13 3 L 13 2 L 13 1 L 13 0 L 12 0 L 11 0 L 10 0 L 9 0 L 8 0 L 7 0 L 6 0 L 5 0 L 4 0 L 3 0 L 2 0 L 1 0 L 0 0 z " />
</svg>
