<?xml version="1.0" encoding="UTF-8" standalone="no"?>
<svg
   width="13"
   height="17"
   viewBox="0 0 13 17"
   version="1.1"
   id="svg210"
   xmlns="http://www.w3.org/2000/svg"
   xmlns:svg="http://www.w3.org/2000/svg">
  <defs
     id="defs2" />
  <path
     id="rect4"
     d="M 0 6 L 0 7 L 0 8 L 0 9 L 1 9 L 2 9 L 3 9 L 4 9 L 5 9 L 6 9 L 6 10 L 5 10 L 5 11 L 4 11 L 4 12 L 3 12 L 3 13 L 2 13 L 2 14 L 1 14 L 0 14 L 0 15 L 0 16 L 0 17 L 1 17 L 2 17 L 3 17 L 4 17 L 5 17 L 6 17 L 7 17 L 8 17 L 9 17 L 10 17 L 11 17 L 12 17 L 13 17 L 13 16 L 13 15 L 13 14 L 12 14 L 11 14 L 10 14 L 9 14 L 8 14 L 7 14 L 7 13 L 8 13 L 8 12 L 9 12 L 9 11 L 10 11 L 10 10 L 11 10 L 11 9 L 12 9 L 13 9 L 13 8 L 13 7 L 13 6 L 12 6 L 11 6 L 10 6 L 9 6 L 8 6 L 7 6 L 6 6 L 5 6 L 4 6 L 3 6 L 2 6 L 1 6 L 0 6 z " />
</svg>
