<?xml version="1.0" encoding="UTF-8" standalone="no"?>
<svg
   width="768"
   height="768"
   viewBox="0 0 768 768"
   version="1.1"
   id="svg148"
   xmlns="http://www.w3.org/2000/svg"
   xmlns:svg="http://www.w3.org/2000/svg">
  <defs
     id="defs2" />
  <path
     id="rect4"
     d="M 192 0 L 192 64 L 128 64 L 128 128 L 128 192 L 128 256 L 128 320 L 128 384 L 128 448 L 128 512 L 128 576 L 128 640 L 128 704 L 192 704 L 192 768 L 256 768 L 320 768 L 384 768 L 448 768 L 512 768 L 576 768 L 576 704 L 640 704 L 640 640 L 640 576 L 640 512 L 640 448 L 640 384 L 640 320 L 640 256 L 640 192 L 640 128 L 640 64 L 576 64 L 576 0 L 512 0 L 448 0 L 384 0 L 320 0 L 256 0 L 192 0 z M 256 128 L 320 128 L 384 128 L 448 128 L 512 128 L 512 192 L 512 256 L 512 320 L 512 384 L 448 384 L 448 320 L 384 320 L 384 256 L 320 256 L 320 192 L 256 192 L 256 128 z M 256 384 L 320 384 L 320 448 L 384 448 L 384 512 L 448 512 L 448 576 L 512 576 L 512 640 L 448 640 L 384 640 L 320 640 L 256 640 L 256 576 L 256 512 L 256 448 L 256 384 z " />
</svg>
