<?xml version="1.0" encoding="UTF-8" standalone="no"?>
<svg
   width="768"
   height="768"
   viewBox="0 0 768 768"
   version="1.1"
   id="svg88"
   xmlns="http://www.w3.org/2000/svg"
   xmlns:svg="http://www.w3.org/2000/svg">
  <defs
     id="defs2" />
  <path
     id="rect4"
     d="M 256 0 L 256 64 L 192 64 L 192 128 L 128 128 L 128 192 L 192 192 L 256 192 L 320 192 L 320 256 L 320 320 L 320 384 L 320 448 L 320 512 L 320 576 L 320 640 L 256 640 L 192 640 L 128 640 L 128 704 L 128 768 L 192 768 L 256 768 L 320 768 L 384 768 L 448 768 L 512 768 L 576 768 L 640 768 L 640 704 L 640 640 L 576 640 L 512 640 L 448 640 L 448 576 L 448 512 L 448 448 L 448 384 L 448 320 L 448 256 L 448 192 L 448 128 L 448 64 L 448 0 L 384 0 L 320 0 L 256 0 z " />
</svg>
