<?xml version="1.0" encoding="UTF-8" standalone="no"?>
<svg
   width="768"
   height="768"
   viewBox="0 0 768 768"
   version="1.1"
   id="svg94"
   xmlns="http://www.w3.org/2000/svg"
   xmlns:svg="http://www.w3.org/2000/svg">
  <defs
     id="defs2" />
  <path
     id="rect4"
     d="M 384 0 L 384 64 L 320 64 L 320 128 L 256 128 L 256 192 L 192 192 L 192 256 L 128 256 L 128 320 L 128 384 L 128 448 L 192 448 L 256 448 L 320 448 L 384 448 L 448 448 L 448 512 L 448 576 L 448 640 L 448 704 L 448 768 L 512 768 L 576 768 L 576 704 L 576 640 L 576 576 L 576 512 L 576 448 L 640 448 L 640 384 L 640 320 L 576 320 L 576 256 L 576 192 L 576 128 L 576 64 L 576 0 L 512 0 L 448 0 L 384 0 z M 384 128 L 448 128 L 448 192 L 448 256 L 448 320 L 384 320 L 320 320 L 256 320 L 256 256 L 320 256 L 320 192 L 384 192 L 384 128 z " />
</svg>
