<?xml version="1.0" encoding="UTF-8" standalone="no"?>
<svg
   width="768"
   height="768"
   viewBox="0 0 768 768"
   version="1.1"
   id="svg102"
   xmlns="http://www.w3.org/2000/svg"
   xmlns:svg="http://www.w3.org/2000/svg">
  <defs
     id="defs2" />
  <path
     id="rect4"
     d="M 192 256 L 192 320 L 128 320 L 128 384 L 192 384 L 256 384 L 320 384 L 384 384 L 448 384 L 512 384 L 512 448 L 448 448 L 384 448 L 320 448 L 256 448 L 192 448 L 192 512 L 128 512 L 128 576 L 128 640 L 128 704 L 192 704 L 192 768 L 256 768 L 320 768 L 384 768 L 448 768 L 512 768 L 576 768 L 576 704 L 640 704 L 640 640 L 640 576 L 640 512 L 640 448 L 640 384 L 640 320 L 576 320 L 576 256 L 512 256 L 448 256 L 384 256 L 320 256 L 256 256 L 192 256 z M 256 576 L 320 576 L 384 576 L 448 576 L 512 576 L 512 640 L 448 640 L 384 640 L 320 640 L 256 640 L 256 576 z " />
</svg>
