<?xml version="1.0" encoding="UTF-8" standalone="no"?>
<svg
   width="512"
   height="768"
   viewBox="0 0 512 768"
   version="1.1"
   id="svg72"
   xmlns="http://www.w3.org/2000/svg"
   xmlns:svg="http://www.w3.org/2000/svg">
  <defs
     id="defs2" />
  <path
     id="rect4"
     d="M 64 256 L 64 320 L 128 320 L 192 320 L 256 320 L 320 320 L 384 320 L 448 320 L 448 256 L 384 256 L 320 256 L 256 256 L 192 256 L 128 256 L 64 256 z M 448 320 L 448 384 L 448 448 L 448 512 L 448 576 L 512 576 L 512 512 L 512 448 L 512 384 L 512 320 L 448 320 z M 448 576 L 384 576 L 384 512 L 384 448 L 384 384 L 320 384 L 256 384 L 192 384 L 192 448 L 256 448 L 320 448 L 320 512 L 320 576 L 256 576 L 192 576 L 192 640 L 256 640 L 320 640 L 384 640 L 448 640 L 448 576 z M 192 576 L 192 512 L 192 448 L 128 448 L 128 512 L 128 576 L 192 576 z M 64 320 L 0 320 L 0 384 L 0 448 L 0 512 L 0 576 L 0 640 L 0 704 L 64 704 L 64 640 L 64 576 L 64 512 L 64 448 L 64 384 L 64 320 z M 64 704 L 64 768 L 128 768 L 192 768 L 256 768 L 320 768 L 384 768 L 448 768 L 512 768 L 512 704 L 448 704 L 384 704 L 320 704 L 256 704 L 192 704 L 128 704 L 64 704 z " />
</svg>
