<?xml version="1.0" encoding="UTF-8" standalone="no"?>
<svg
   width="768"
   height="768"
   viewBox="0 0 768 768"
   version="1.1"
   id="svg88"
   xmlns="http://www.w3.org/2000/svg"
   xmlns:svg="http://www.w3.org/2000/svg">
  <defs
     id="defs2" />
  <path
     id="rect4"
     d="M 128 192 L 128 256 L 128 320 L 128 384 L 128 448 L 128 512 L 128 576 L 128 640 L 128 704 L 128 768 L 192 768 L 256 768 L 320 768 L 384 768 L 448 768 L 512 768 L 576 768 L 640 768 L 640 704 L 576 704 L 512 704 L 448 704 L 384 704 L 320 704 L 256 704 L 192 704 L 192 640 L 192 576 L 192 512 L 192 448 L 192 384 L 192 320 L 192 256 L 256 256 L 320 256 L 384 256 L 448 256 L 512 256 L 576 256 L 576 320 L 576 384 L 576 448 L 576 512 L 576 576 L 512 576 L 512 512 L 512 448 L 512 384 L 512 320 L 448 320 L 384 320 L 320 320 L 320 384 L 384 384 L 448 384 L 448 448 L 448 512 L 448 576 L 384 576 L 320 576 L 320 640 L 384 640 L 448 640 L 512 640 L 576 640 L 640 640 L 640 576 L 640 512 L 640 448 L 640 384 L 640 320 L 640 256 L 640 192 L 576 192 L 512 192 L 448 192 L 384 192 L 320 192 L 256 192 L 192 192 L 128 192 z M 320 576 L 320 512 L 320 448 L 320 384 L 256 384 L 256 448 L 256 512 L 256 576 L 320 576 z " />
</svg>
