<?xml version="1.0" encoding="UTF-8" standalone="no"?>
<svg
   width="512"
   height="768"
   viewBox="0 0 512 768"
   version="1.1"
   id="svg64"
   xmlns="http://www.w3.org/2000/svg"
   xmlns:svg="http://www.w3.org/2000/svg">
  <defs
     id="defs2" />
  <path
     id="rect4"
     d="M 0 0 L 0 64 L 0 128 L 0 192 L 64 192 L 64 256 L 128 256 L 128 320 L 128 384 L 192 384 L 192 448 L 256 448 L 256 512 L 256 576 L 320 576 L 320 640 L 384 640 L 384 704 L 384 768 L 448 768 L 512 768 L 512 704 L 512 640 L 512 576 L 448 576 L 448 512 L 384 512 L 384 448 L 384 384 L 320 384 L 320 320 L 256 320 L 256 256 L 256 192 L 192 192 L 192 128 L 128 128 L 128 64 L 128 0 L 64 0 L 0 0 z " />
</svg>
