<?xml version="1.0" encoding="UTF-8" standalone="no"?>
<svg
   width="768"
   height="768"
   viewBox="0 0 768 768"
   version="1.1"
   id="svg60"
   xmlns="http://www.w3.org/2000/svg"
   xmlns:svg="http://www.w3.org/2000/svg">
  <defs
     id="defs2" />
  <path
     id="rect4"
     d="M 192 0 L 192 64 L 192 128 L 192 192 L 256 192 L 256 256 L 256 320 L 320 320 L 320 384 L 320 448 L 320 512 L 384 512 L 384 576 L 384 640 L 448 640 L 448 704 L 448 768 L 512 768 L 576 768 L 576 704 L 576 640 L 576 576 L 512 576 L 512 512 L 512 448 L 448 448 L 448 384 L 448 320 L 448 256 L 384 256 L 384 192 L 384 128 L 320 128 L 320 64 L 320 0 L 256 0 L 192 0 z " />
</svg>
