<?xml version="1.0" encoding="UTF-8" standalone="no"?>
<svg
   width="768"
   height="768"
   viewBox="0 0 768 768"
   version="1.1"
   id="svg60"
   xmlns="http://www.w3.org/2000/svg"
   xmlns:svg="http://www.w3.org/2000/svg">
  <defs
     id="defs2" />
  <path
     id="rect4"
     d="M 448 64 L 448 128 L 448 192 L 512 192 L 576 192 L 576 128 L 576 64 L 512 64 L 448 64 z M 448 256 L 448 320 L 448 384 L 448 448 L 448 512 L 448 576 L 448 640 L 384 640 L 320 640 L 320 576 L 256 576 L 192 576 L 192 640 L 192 704 L 256 704 L 256 768 L 320 768 L 384 768 L 448 768 L 512 768 L 512 704 L 576 704 L 576 640 L 576 576 L 576 512 L 576 448 L 576 384 L 576 320 L 576 256 L 512 256 L 448 256 z " />
</svg>
