<?xml version="1.0" encoding="UTF-8" standalone="no"?>
<svg
   width="512"
   height="768"
   viewBox="0 0 512 768"
   version="1.1"
   id="svg96"
   xmlns="http://www.w3.org/2000/svg"
   xmlns:svg="http://www.w3.org/2000/svg">
  <defs
     id="defs2" />
  <path
     id="rect4"
     d="M 0 0 L 0 64 L 0 128 L 0 192 L 64 192 L 128 192 L 192 192 L 192 128 L 192 64 L 192 0 L 128 0 L 64 0 L 0 0 z M 384 0 L 384 64 L 384 128 L 320 128 L 320 192 L 256 192 L 256 256 L 256 320 L 192 320 L 192 384 L 128 384 L 128 448 L 128 512 L 64 512 L 64 576 L 0 576 L 0 640 L 0 704 L 0 768 L 64 768 L 128 768 L 128 704 L 128 640 L 192 640 L 192 576 L 256 576 L 256 512 L 256 448 L 320 448 L 320 384 L 384 384 L 384 320 L 384 256 L 448 256 L 448 192 L 512 192 L 512 128 L 512 64 L 512 0 L 448 0 L 384 0 z M 64 64 L 128 64 L 128 128 L 64 128 L 64 64 z M 320 576 L 320 640 L 320 704 L 320 768 L 384 768 L 448 768 L 512 768 L 512 704 L 512 640 L 512 576 L 448 576 L 384 576 L 320 576 z M 384 640 L 448 640 L 448 704 L 384 704 L 384 640 z " />
</svg>
