<?xml version="1.0" encoding="UTF-8" standalone="no"?>
<svg
   width="768"
   height="768"
   viewBox="0 0 768 768"
   version="1.1"
   id="svg72"
   xmlns="http://www.w3.org/2000/svg"
   xmlns:svg="http://www.w3.org/2000/svg">
  <defs
     id="defs2" />
  <path
     id="rect4"
     d="M 192 0 L 192 64 L 192 128 L 256 128 L 320 128 L 320 192 L 320 256 L 320 320 L 384 320 L 384 384 L 384 448 L 320 448 L 320 512 L 320 576 L 320 640 L 256 640 L 192 640 L 192 704 L 192 768 L 256 768 L 320 768 L 384 768 L 384 704 L 448 704 L 448 640 L 448 576 L 448 512 L 512 512 L 512 448 L 576 448 L 576 384 L 576 320 L 512 320 L 512 256 L 448 256 L 448 192 L 448 128 L 448 64 L 384 64 L 384 0 L 320 0 L 256 0 L 192 0 z " />
</svg>
