<?xml version="1.0" encoding="UTF-8" standalone="no"?>
<svg
   width="768"
   height="768"
   viewBox="0 0 768 768"
   version="1.1"
   id="svg60"
   xmlns="http://www.w3.org/2000/svg"
   xmlns:svg="http://www.w3.org/2000/svg">
  <defs
     id="defs2" />
  <path
     id="rect4"
     d="M 448 0 L 448 64 L 448 128 L 384 128 L 384 192 L 384 256 L 320 256 L 320 320 L 320 384 L 320 448 L 256 448 L 256 512 L 256 576 L 192 576 L 192 640 L 192 704 L 192 768 L 256 768 L 320 768 L 320 704 L 320 640 L 384 640 L 384 576 L 384 512 L 448 512 L 448 448 L 448 384 L 448 320 L 512 320 L 512 256 L 512 192 L 576 192 L 576 128 L 576 64 L 576 0 L 512 0 L 448 0 z " />
</svg>
