<?xml version="1.0" encoding="UTF-8" standalone="no"?>
<svg
   width="512"
   height="768"
   viewBox="0 0 512 768"
   version="1.1"
   id="svg64"
   xmlns="http://www.w3.org/2000/svg"
   xmlns:svg="http://www.w3.org/2000/svg">
  <defs
     id="defs2" />
  <path
     id="rect4"
     d="M 384 0 L 384 64 L 384 128 L 320 128 L 320 192 L 256 192 L 256 256 L 256 320 L 192 320 L 192 384 L 128 384 L 128 448 L 128 512 L 64 512 L 64 576 L 0 576 L 0 640 L 0 704 L 0 768 L 64 768 L 128 768 L 128 704 L 128 640 L 192 640 L 192 576 L 256 576 L 256 512 L 256 448 L 320 448 L 320 384 L 384 384 L 384 320 L 384 256 L 448 256 L 448 192 L 512 192 L 512 128 L 512 64 L 512 0 L 448 0 L 384 0 z " />
</svg>
