<?xml version="1.0" encoding="UTF-8" standalone="no"?>
<svg
   width="768"
   height="768"
   viewBox="0 0 768 768"
   version="1.1"
   id="svg38"
   xmlns="http://www.w3.org/2000/svg"
   xmlns:svg="http://www.w3.org/2000/svg">
  <defs
     id="defs2" />
  <path
     id="rect4"
     d="M 192 256 L 192 320 L 128 320 L 128 384 L 128 448 L 192 448 L 192 384 L 256 384 L 320 384 L 320 448 L 384 448 L 384 512 L 448 512 L 512 512 L 576 512 L 576 448 L 640 448 L 640 384 L 640 320 L 576 320 L 576 384 L 512 384 L 448 384 L 448 320 L 384 320 L 320 320 L 320 256 L 256 256 L 192 256 z " />
</svg>
