<?xml version="1.0" encoding="UTF-8" standalone="no"?>
<svg
   width="768"
   height="768"
   viewBox="0 0 768 768"
   version="1.1"
   id="svg84"
   xmlns="http://www.w3.org/2000/svg"
   xmlns:svg="http://www.w3.org/2000/svg">
  <defs
     id="defs2" />
  <path
     id="rect4"
     d="M 128 256 L 128 320 L 128 384 L 192 384 L 192 448 L 256 448 L 256 512 L 256 576 L 192 576 L 192 640 L 128 640 L 128 704 L 128 768 L 192 768 L 256 768 L 256 704 L 320 704 L 320 640 L 384 640 L 448 640 L 448 704 L 512 704 L 512 768 L 576 768 L 640 768 L 640 704 L 640 640 L 576 640 L 576 576 L 512 576 L 512 512 L 512 448 L 576 448 L 576 384 L 640 384 L 640 320 L 640 256 L 576 256 L 512 256 L 512 320 L 448 320 L 448 384 L 384 384 L 320 384 L 320 320 L 256 320 L 256 256 L 192 256 L 128 256 z " />
</svg>
