<?xml version="1.0" encoding="UTF-8" standalone="no"?>
<svg
   width="480"
   height="864"
   viewBox="0 0 480 864"
   version="1.1"
   id="svg44"
   xmlns="http://www.w3.org/2000/svg"
   xmlns:svg="http://www.w3.org/2000/svg">
  <defs
     id="defs2" />
  <path
     id="rect4"
     d="M 384 0 L 384 96 L 384 192 L 384 288 L 384 384 L 288 384 L 192 384 L 96 384 L 0 384 L 0 480 L 0 576 L 0 672 L 0 768 L 0 864 L 96 864 L 192 864 L 288 864 L 384 864 L 480 864 L 480 768 L 480 672 L 480 576 L 480 480 L 480 384 L 480 288 L 480 192 L 480 96 L 480 0 L 384 0 z M 96 480 L 192 480 L 288 480 L 384 480 L 384 576 L 384 672 L 384 768 L 288 768 L 192 768 L 96 768 L 96 672 L 96 576 L 96 480 z " />
</svg>
