<?xml version="1.0" encoding="UTF-8" standalone="no"?>
<svg
   width="480"
   height="864"
   viewBox="0 0 480 864"
   version="1.1"
   id="svg22"
   xmlns="http://www.w3.org/2000/svg"
   xmlns:svg="http://www.w3.org/2000/svg">
  <defs
     id="defs2" />
  <path
     id="rect4"
     d="M 384 0 L 384 96 L 480 96 L 480 0 L 384 0 z M 384 96 L 288 96 L 288 192 L 384 192 L 384 96 z M 288 192 L 192 192 L 192 288 L 288 288 L 288 192 z M 192 288 L 96 288 L 96 384 L 192 384 L 192 288 z M 96 384 L 0 384 L 0 480 L 96 480 L 96 384 z M 96 480 L 96 576 L 192 576 L 192 480 L 96 480 z M 192 576 L 192 672 L 288 672 L 288 576 L 192 576 z M 288 672 L 288 768 L 384 768 L 384 672 L 288 672 z M 384 768 L 384 864 L 480 864 L 480 768 L 384 768 z " />
</svg>
