<?xml version="1.0" encoding="UTF-8" standalone="no"?>
<svg
   width="480"
   height="864"
   viewBox="0 0 480 864"
   version="1.1"
   id="svg46"
   xmlns="http://www.w3.org/2000/svg"
   xmlns:svg="http://www.w3.org/2000/svg">
  <defs
     id="defs2" />
  <path
     id="rect4"
     d="M 0 0 L 0 96 L 0 192 L 0 288 L 0 384 L 0 480 L 0 576 L 0 672 L 0 768 L 0 864 L 96 864 L 96 768 L 96 672 L 96 576 L 96 480 L 96 384 L 96 288 L 96 192 L 192 192 L 192 96 L 96 96 L 96 0 L 0 0 z M 192 192 L 192 288 L 288 288 L 288 192 L 192 192 z M 288 192 L 384 192 L 384 288 L 384 384 L 384 480 L 384 576 L 384 672 L 384 768 L 384 864 L 480 864 L 480 768 L 480 672 L 480 576 L 480 480 L 480 384 L 480 288 L 480 192 L 480 96 L 480 0 L 384 0 L 384 96 L 288 96 L 288 192 z " />
</svg>
