<?xml version="1.0" encoding="UTF-8" standalone="no"?>
<svg
   width="480"
   height="864"
   viewBox="0 0 480 864"
   version="1.1"
   id="svg38"
   xmlns="http://www.w3.org/2000/svg"
   xmlns:svg="http://www.w3.org/2000/svg">
  <defs
     id="defs2" />
  <path
     id="rect4"
     d="M 0 0 L 0 96 L 0 192 L 96 192 L 192 192 L 192 96 L 192 0 L 96 0 L 0 0 z M 384 0 L 384 96 L 480 96 L 480 0 L 384 0 z M 384 96 L 288 96 L 288 192 L 288 288 L 384 288 L 384 192 L 384 96 z M 288 288 L 192 288 L 192 384 L 192 480 L 192 576 L 288 576 L 288 480 L 288 384 L 288 288 z M 192 576 L 96 576 L 96 672 L 96 768 L 192 768 L 192 672 L 192 576 z M 96 768 L 0 768 L 0 864 L 96 864 L 96 768 z M 288 672 L 288 768 L 288 864 L 384 864 L 480 864 L 480 768 L 480 672 L 384 672 L 288 672 z " />
</svg>
