<?xml version="1.0" encoding="UTF-8" standalone="no"?>
<svg
   width="5"
   height="7"
   viewBox="0 0 5 7"
   version="1.1"
   id="svg32"
   xmlns="http://www.w3.org/2000/svg"
   xmlns:svg="http://www.w3.org/2000/svg">
  <defs
     id="defs2" />
  <path
     id="rect4"
     d="M 1 0 L 1 1 L 2 1 L 3 1 L 4 1 L 4 0 L 3 0 L 2 0 L 1 0 z M 4 1 L 4 2 L 4 3 L 5 3 L 5 2 L 5 1 L 4 1 z M 4 3 L 3 3 L 3 4 L 4 4 L 4 3 z M 3 4 L 2 4 L 2 5 L 3 5 L 3 4 z M 2 5 L 1 5 L 1 6 L 0 6 L 0 7 L 1 7 L 2 7 L 3 7 L 4 7 L 5 7 L 5 6 L 4 6 L 3 6 L 2 6 L 2 5 z M 1 1 L 0 1 L 0 2 L 1 2 L 1 1 z " />
</svg>
