<?xml version="1.0" encoding="UTF-8" standalone="no"?>
<svg
   width="5"
   height="7"
   viewBox="0 0 5 7"
   version="1.1"
   id="svg30"
   xmlns="http://www.w3.org/2000/svg"
   xmlns:svg="http://www.w3.org/2000/svg">
  <defs
     id="defs2" />
  <path
     id="rect4"
     d="M 1 2 L 1 3 L 2 3 L 3 3 L 4 3 L 5 3 L 5 2 L 4 2 L 3 2 L 2 2 L 1 2 z M 1 3 L 0 3 L 0 4 L 1 4 L 1 3 z M 1 4 L 1 5 L 2 5 L 3 5 L 4 5 L 4 4 L 3 4 L 2 4 L 1 4 z M 4 5 L 4 6 L 5 6 L 5 5 L 4 5 z M 4 6 L 3 6 L 2 6 L 1 6 L 0 6 L 0 7 L 1 7 L 2 7 L 3 7 L 4 7 L 4 6 z " />
</svg>
