<?xml version="1.0" encoding="UTF-8" standalone="no"?>
<svg
   width="5"
   height="7"
   viewBox="0 0 5 7"
   version="1.1"
   id="svg24"
   xmlns="http://www.w3.org/2000/svg"
   xmlns:svg="http://www.w3.org/2000/svg">
  <defs
     id="defs2" />
  <path
     id="rect4"
     d="M 0 0 L 0 1 L 0 2 L 1 2 L 1 1 L 1 0 L 0 0 z M 1 2 L 1 3 L 2 3 L 2 2 L 1 2 z M 2 3 L 2 4 L 2 5 L 2 6 L 2 7 L 3 7 L 3 6 L 3 5 L 3 4 L 3 3 L 2 3 z M 3 3 L 4 3 L 4 2 L 3 2 L 3 3 z M 4 2 L 5 2 L 5 1 L 5 0 L 4 0 L 4 1 L 4 2 z " />
</svg>
