<?xml version="1.0" encoding="UTF-8"?>
<svg xmlns="http://www.w3.org/2000/svg" xmlns:xlink="http://www.w3.org/1999/xlink"
     width="768" height="768" viewBox="0 0 768 768">
<defs>
</defs>
<rect x="0" y="0" width="64" height="64" fill="#000000" fill-opacity="0.99609375" />
<rect x="64" y="0" width="64" height="64" fill="#000000" fill-opacity="0.99609375" />
<rect x="128" y="0" width="64" height="64" fill="#000000" fill-opacity="0.99609375" />
<rect x="192" y="0" width="64" height="64" fill="#000000" fill-opacity="0.99609375" />
<rect x="256" y="0" width="64" height="64" fill="#000000" fill-opacity="0.99609375" />
<rect x="320" y="0" width="64" height="64" fill="#000000" fill-opacity="0.99609375" />
<rect x="384" y="0" width="64" height="64" fill="#000000" fill-opacity="0.99609375" />
<rect x="448" y="0" width="64" height="64" fill="#000000" fill-opacity="0.99609375" />
<rect x="512" y="0" width="64" height="64" fill="#000000" fill-opacity="0.99609375" />
<rect x="576" y="0" width="64" height="64" fill="#000000" fill-opacity="0.99609375" />
<rect x="640" y="0" width="64" height="64" fill="#000000" fill-opacity="0.99609375" />
<rect x="704" y="0" width="64" height="64" fill="#000000" fill-opacity="0.99609375" />
<rect x="0" y="64" width="64" height="64" fill="#000000" fill-opacity="0.99609375" />
<rect x="704" y="64" width="64" height="64" fill="#000000" fill-opacity="0.99609375" />
<rect x="0" y="128" width="64" height="64" fill="#000000" fill-opacity="0.99609375" />
<rect x="192" y="128" width="64" height="64" fill="#000000" fill-opacity="0.99609375" />
<rect x="256" y="128" width="64" height="64" fill="#000000" fill-opacity="0.99609375" />
<rect x="448" y="128" width="64" height="64" fill="#000000" fill-opacity="0.99609375" />
<rect x="512" y="128" width="64" height="64" fill="#000000" fill-opacity="0.99609375" />
<rect x="704" y="128" width="64" height="64" fill="#000000" fill-opacity="0.99609375" />
<rect x="0" y="192" width="64" height="64" fill="#000000" fill-opacity="0.99609375" />
<rect x="192" y="192" width="64" height="64" fill="#000000" fill-opacity="0.99609375" />
<rect x="256" y="192" width="64" height="64" fill="#000000" fill-opacity="0.99609375" />
<rect x="448" y="192" width="64" height="64" fill="#000000" fill-opacity="0.99609375" />
<rect x="512" y="192" width="64" height="64" fill="#000000" fill-opacity="0.99609375" />
<rect x="704" y="192" width="64" height="64" fill="#000000" fill-opacity="0.99609375" />
<rect x="0" y="256" width="64" height="64" fill="#000000" fill-opacity="0.99609375" />
<rect x="192" y="256" width="64" height="64" fill="#000000" fill-opacity="0.99609375" />
<rect x="256" y="256" width="64" height="64" fill="#000000" fill-opacity="0.99609375" />
<rect x="448" y="256" width="64" height="64" fill="#000000" fill-opacity="0.99609375" />
<rect x="512" y="256" width="64" height="64" fill="#000000" fill-opacity="0.99609375" />
<rect x="704" y="256" width="64" height="64" fill="#000000" fill-opacity="0.99609375" />
<rect x="0" y="320" width="64" height="64" fill="#000000" fill-opacity="0.99609375" />
<rect x="192" y="320" width="64" height="64" fill="#000000" fill-opacity="0.99609375" />
<rect x="256" y="320" width="64" height="64" fill="#000000" fill-opacity="0.99609375" />
<rect x="448" y="320" width="64" height="64" fill="#000000" fill-opacity="0.99609375" />
<rect x="512" y="320" width="64" height="64" fill="#000000" fill-opacity="0.99609375" />
<rect x="704" y="320" width="64" height="64" fill="#000000" fill-opacity="0.99609375" />
<rect x="0" y="384" width="64" height="64" fill="#000000" fill-opacity="0.99609375" />
<rect x="192" y="384" width="64" height="64" fill="#000000" fill-opacity="0.99609375" />
<rect x="256" y="384" width="64" height="64" fill="#000000" fill-opacity="0.99609375" />
<rect x="448" y="384" width="64" height="64" fill="#000000" fill-opacity="0.99609375" />
<rect x="512" y="384" width="64" height="64" fill="#000000" fill-opacity="0.99609375" />
<rect x="704" y="384" width="64" height="64" fill="#000000" fill-opacity="0.99609375" />
<rect x="0" y="448" width="64" height="64" fill="#000000" fill-opacity="0.99609375" />
<rect x="192" y="448" width="64" height="64" fill="#000000" fill-opacity="0.99609375" />
<rect x="256" y="448" width="64" height="64" fill="#000000" fill-opacity="0.99609375" />
<rect x="448" y="448" width="64" height="64" fill="#000000" fill-opacity="0.99609375" />
<rect x="512" y="448" width="64" height="64" fill="#000000" fill-opacity="0.99609375" />
<rect x="704" y="448" width="64" height="64" fill="#000000" fill-opacity="0.99609375" />
<rect x="0" y="512" width="64" height="64" fill="#000000" fill-opacity="0.99609375" />
<rect x="192" y="512" width="64" height="64" fill="#000000" fill-opacity="0.99609375" />
<rect x="256" y="512" width="64" height="64" fill="#000000" fill-opacity="0.99609375" />
<rect x="448" y="512" width="64" height="64" fill="#000000" fill-opacity="0.99609375" />
<rect x="512" y="512" width="64" height="64" fill="#000000" fill-opacity="0.99609375" />
<rect x="704" y="512" width="64" height="64" fill="#000000" fill-opacity="0.99609375" />
<rect x="0" y="576" width="64" height="64" fill="#000000" fill-opacity="0.99609375" />
<rect x="192" y="576" width="64" height="64" fill="#000000" fill-opacity="0.99609375" />
<rect x="256" y="576" width="64" height="64" fill="#000000" fill-opacity="0.99609375" />
<rect x="448" y="576" width="64" height="64" fill="#000000" fill-opacity="0.99609375" />
<rect x="512" y="576" width="64" height="64" fill="#000000" fill-opacity="0.99609375" />
<rect x="704" y="576" width="64" height="64" fill="#000000" fill-opacity="0.99609375" />
<rect x="0" y="640" width="64" height="64" fill="#000000" fill-opacity="0.99609375" />
<rect x="704" y="640" width="64" height="64" fill="#000000" fill-opacity="0.99609375" />
<rect x="0" y="704" width="64" height="64" fill="#000000" fill-opacity="0.99609375" />
<rect x="64" y="704" width="64" height="64" fill="#000000" fill-opacity="0.99609375" />
<rect x="128" y="704" width="64" height="64" fill="#000000" fill-opacity="0.99609375" />
<rect x="192" y="704" width="64" height="64" fill="#000000" fill-opacity="0.99609375" />
<rect x="256" y="704" width="64" height="64" fill="#000000" fill-opacity="0.99609375" />
<rect x="320" y="704" width="64" height="64" fill="#000000" fill-opacity="0.99609375" />
<rect x="384" y="704" width="64" height="64" fill="#000000" fill-opacity="0.99609375" />
<rect x="448" y="704" width="64" height="64" fill="#000000" fill-opacity="0.99609375" />
<rect x="512" y="704" width="64" height="64" fill="#000000" fill-opacity="0.99609375" />
<rect x="576" y="704" width="64" height="64" fill="#000000" fill-opacity="0.99609375" />
<rect x="640" y="704" width="64" height="64" fill="#000000" fill-opacity="0.99609375" />
<rect x="704" y="704" width="64" height="64" fill="#000000" fill-opacity="0.99609375" />
</svg>