<?xml version="1.0" encoding="UTF-8"?>
<svg xmlns="http://www.w3.org/2000/svg" xmlns:xlink="http://www.w3.org/1999/xlink"
     width="768" height="768" viewBox="0 0 768 768">
<defs>
</defs>
<rect x="256" y="128" width="64" height="64" fill="#000000" fill-opacity="0.99609375" />
<rect x="256" y="192" width="64" height="64" fill="#000000" fill-opacity="0.99609375" />
<rect x="320" y="192" width="64" height="64" fill="#000000" fill-opacity="0.99609375" />
<rect x="256" y="256" width="64" height="64" fill="#000000" fill-opacity="0.99609375" />
<rect x="320" y="256" width="64" height="64" fill="#000000" fill-opacity="0.99609375" />
<rect x="384" y="256" width="64" height="64" fill="#000000" fill-opacity="0.99609375" />
<rect x="256" y="320" width="64" height="64" fill="#000000" fill-opacity="0.99609375" />
<rect x="320" y="320" width="64" height="64" fill="#000000" fill-opacity="0.99609375" />
<rect x="384" y="320" width="64" height="64" fill="#000000" fill-opacity="0.99609375" />
<rect x="448" y="320" width="64" height="64" fill="#000000" fill-opacity="0.99609375" />
<rect x="256" y="384" width="64" height="64" fill="#000000" fill-opacity="0.99609375" />
<rect x="320" y="384" width="64" height="64" fill="#000000" fill-opacity="0.99609375" />
<rect x="384" y="384" width="64" height="64" fill="#000000" fill-opacity="0.99609375" />
<rect x="448" y="384" width="64" height="64" fill="#000000" fill-opacity="0.99609375" />
<rect x="256" y="448" width="64" height="64" fill="#000000" fill-opacity="0.99609375" />
<rect x="320" y="448" width="64" height="64" fill="#000000" fill-opacity="0.99609375" />
<rect x="384" y="448" width="64" height="64" fill="#000000" fill-opacity="0.99609375" />
<rect x="256" y="512" width="64" height="64" fill="#000000" fill-opacity="0.99609375" />
<rect x="320" y="512" width="64" height="64" fill="#000000" fill-opacity="0.99609375" />
<rect x="256" y="576" width="64" height="64" fill="#000000" fill-opacity="0.99609375" />
</svg>