<?xml version="1.0" encoding="UTF-8" standalone="no"?>
<svg
   width="480"
   height="672"
   viewBox="0 0 480 672"
   version="1.1"
   id="svg32"
   xmlns="http://www.w3.org/2000/svg"
   xmlns:svg="http://www.w3.org/2000/svg">
  <defs
     id="defs2" />
  <path
     id="rect4"
     d="M 192 0 L 192 96 L 288 96 L 288 0 L 192 0 z M 288 96 L 288 192 L 384 192 L 384 96 L 288 96 z M 288 192 L 192 192 L 192 288 L 96 288 L 96 384 L 192 384 L 288 384 L 288 288 L 288 192 z M 288 384 L 288 480 L 288 576 L 384 576 L 384 480 L 480 480 L 480 384 L 384 384 L 288 384 z M 384 576 L 384 672 L 480 672 L 480 576 L 384 576 z M 288 576 L 192 576 L 96 576 L 96 672 L 192 672 L 288 672 L 288 576 z M 96 576 L 96 480 L 96 384 L 0 384 L 0 480 L 0 576 L 96 576 z M 192 192 L 192 96 L 96 96 L 96 192 L 192 192 z " />
</svg>
