<?xml version="1.0" encoding="UTF-8" standalone="no"?>
<svg
   width="576"
   height="768"
   viewBox="0 0 576 768"
   version="1.1"
   id="svg94"
   xmlns="http://www.w3.org/2000/svg"
   xmlns:svg="http://www.w3.org/2000/svg">
  <defs
     id="defs2" />
  <path
     id="rect4"
     d="M 240 0 L 240 48 L 192 48 L 192 96 L 144 96 L 144 144 L 144 192 L 192 192 L 240 192 L 240 240 L 240 288 L 240 336 L 240 384 L 240 432 L 240 480 L 240 528 L 240 576 L 240 624 L 240 672 L 192 672 L 144 672 L 144 720 L 144 768 L 192 768 L 240 768 L 288 768 L 336 768 L 384 768 L 432 768 L 432 720 L 432 672 L 384 672 L 336 672 L 336 624 L 336 576 L 336 528 L 336 480 L 336 432 L 336 384 L 336 336 L 336 288 L 336 240 L 336 192 L 336 144 L 336 96 L 336 48 L 336 0 L 288 0 L 240 0 z " />
</svg>
