<?xml version="1.0" encoding="UTF-8" standalone="no"?>
<svg
   width="576"
   height="768"
   viewBox="0 0 576 768"
   version="1.1"
   id="svg148"
   xmlns="http://www.w3.org/2000/svg"
   xmlns:svg="http://www.w3.org/2000/svg">
  <defs
     id="defs2" />
  <path
     id="rect4"
     d="M 288 0 L 288 48 L 240 48 L 240 96 L 192 96 L 192 144 L 144 144 L 144 192 L 96 192 L 96 240 L 48 240 L 48 288 L 0 288 L 0 336 L 0 384 L 0 432 L 48 432 L 96 432 L 144 432 L 192 432 L 240 432 L 288 432 L 336 432 L 384 432 L 384 480 L 384 528 L 384 576 L 384 624 L 384 672 L 384 720 L 384 768 L 432 768 L 480 768 L 480 720 L 480 672 L 480 624 L 480 576 L 480 528 L 480 480 L 480 432 L 528 432 L 576 432 L 576 384 L 576 336 L 528 336 L 480 336 L 480 288 L 480 240 L 480 192 L 480 144 L 480 96 L 480 48 L 480 0 L 432 0 L 384 0 L 336 0 L 288 0 z M 336 96 L 384 96 L 384 144 L 384 192 L 384 240 L 384 288 L 384 336 L 336 336 L 288 336 L 240 336 L 192 336 L 144 336 L 144 288 L 192 288 L 192 240 L 240 240 L 240 192 L 288 192 L 288 144 L 336 144 L 336 96 z " />
</svg>
