<?xml version="1.0" encoding="UTF-8" standalone="no"?>
<svg
   width="576"
   height="768"
   viewBox="0 0 576 768"
   version="1.1"
   id="svg180"
   xmlns="http://www.w3.org/2000/svg"
   xmlns:svg="http://www.w3.org/2000/svg">
  <defs
     id="defs2" />
  <path
     id="rect4"
     d="M 192 0 L 192 48 L 144 48 L 144 96 L 96 96 L 96 144 L 48 144 L 48 192 L 0 192 L 0 240 L 0 288 L 0 336 L 0 384 L 0 432 L 0 480 L 0 528 L 0 576 L 0 624 L 0 672 L 0 720 L 0 768 L 48 768 L 96 768 L 96 720 L 96 672 L 96 624 L 96 576 L 96 528 L 96 480 L 144 480 L 192 480 L 240 480 L 288 480 L 336 480 L 384 480 L 432 480 L 480 480 L 480 528 L 480 576 L 480 624 L 480 672 L 480 720 L 480 768 L 528 768 L 576 768 L 576 720 L 576 672 L 576 624 L 576 576 L 576 528 L 576 480 L 576 432 L 576 384 L 576 336 L 576 288 L 576 240 L 576 192 L 528 192 L 528 144 L 480 144 L 480 96 L 432 96 L 432 48 L 384 48 L 384 0 L 336 0 L 288 0 L 240 0 L 192 0 z M 240 96 L 288 96 L 336 96 L 336 144 L 384 144 L 384 192 L 432 192 L 432 240 L 480 240 L 480 288 L 480 336 L 480 384 L 432 384 L 384 384 L 336 384 L 288 384 L 240 384 L 192 384 L 144 384 L 96 384 L 96 336 L 96 288 L 96 240 L 144 240 L 144 192 L 192 192 L 192 144 L 240 144 L 240 96 z " />
</svg>
