<?xml version="1.0" encoding="UTF-8" standalone="no"?>
<svg
   width="576"
   height="768"
   viewBox="0 0 576 768"
   version="1.1"
   id="svg88"
   xmlns="http://www.w3.org/2000/svg"
   xmlns:svg="http://www.w3.org/2000/svg">
  <defs
     id="defs2" />
  <path
     id="rect4"
     d="M 0 0 L 0 48 L 0 96 L 0 144 L 0 192 L 48 192 L 48 240 L 96 240 L 96 288 L 144 288 L 144 336 L 192 336 L 192 384 L 240 384 L 240 432 L 288 432 L 288 480 L 336 480 L 336 528 L 384 528 L 384 576 L 432 576 L 432 624 L 480 624 L 480 672 L 480 720 L 480 768 L 528 768 L 576 768 L 576 720 L 576 672 L 576 624 L 576 576 L 528 576 L 528 528 L 480 528 L 480 480 L 432 480 L 432 432 L 384 432 L 384 384 L 336 384 L 336 336 L 288 336 L 288 288 L 240 288 L 240 240 L 192 240 L 192 192 L 144 192 L 144 144 L 96 144 L 96 96 L 96 48 L 96 0 L 48 0 L 0 0 z " />
</svg>
