<?xml version="1.0" encoding="UTF-8" standalone="no"?>
<svg
   width="576"
   height="768"
   viewBox="0 0 576 768"
   version="1.1"
   id="svg48"
   xmlns="http://www.w3.org/2000/svg"
   xmlns:svg="http://www.w3.org/2000/svg">
  <defs
     id="defs2" />
  <path
     id="rect4"
     d="M 240 0 L 240 48 L 192 48 L 192 96 L 144 96 L 144 144 L 96 144 L 96 192 L 96 240 L 144 240 L 192 240 L 192 192 L 240 192 L 240 144 L 288 144 L 336 144 L 336 192 L 384 192 L 384 240 L 432 240 L 480 240 L 480 192 L 480 144 L 432 144 L 432 96 L 384 96 L 384 48 L 336 48 L 336 0 L 288 0 L 240 0 z " />
</svg>
