<?xml version="1.0" encoding="UTF-8" standalone="no"?>
<svg
   width="576"
   height="768"
   viewBox="0 0 576 768"
   version="1.1"
   id="svg214"
   xmlns="http://www.w3.org/2000/svg"
   xmlns:svg="http://www.w3.org/2000/svg">
  <defs
     id="defs2" />
  <path
     id="rect4"
     d="M 240 0 L 240 48 L 192 48 L 144 48 L 96 48 L 96 96 L 48 96 L 48 144 L 0 144 L 0 192 L 0 240 L 0 288 L 0 336 L 48 336 L 48 384 L 96 384 L 96 432 L 144 432 L 192 432 L 240 432 L 240 480 L 240 528 L 240 576 L 240 624 L 192 624 L 144 624 L 144 576 L 96 576 L 96 528 L 48 528 L 0 528 L 0 576 L 0 624 L 48 624 L 48 672 L 96 672 L 96 720 L 144 720 L 192 720 L 240 720 L 240 768 L 288 768 L 336 768 L 384 768 L 384 720 L 432 720 L 480 720 L 480 672 L 528 672 L 528 624 L 576 624 L 576 576 L 576 528 L 576 480 L 576 432 L 528 432 L 528 384 L 480 384 L 480 336 L 432 336 L 384 336 L 336 336 L 336 288 L 336 240 L 336 192 L 336 144 L 384 144 L 432 144 L 432 192 L 480 192 L 480 240 L 528 240 L 576 240 L 576 192 L 576 144 L 528 144 L 528 96 L 480 96 L 480 48 L 432 48 L 384 48 L 336 48 L 336 0 L 288 0 L 240 0 z M 144 144 L 192 144 L 240 144 L 240 192 L 240 240 L 240 288 L 240 336 L 192 336 L 144 336 L 144 288 L 96 288 L 96 240 L 96 192 L 144 192 L 144 144 z M 336 432 L 384 432 L 432 432 L 432 480 L 480 480 L 480 528 L 480 576 L 432 576 L 432 624 L 384 624 L 336 624 L 336 576 L 336 528 L 336 480 L 336 432 z " />
</svg>
