<?xml version="1.0" encoding="UTF-8" standalone="no"?>
<svg
   width="576"
   height="768"
   viewBox="0 0 576 768"
   version="1.1"
   id="svg100"
   xmlns="http://www.w3.org/2000/svg"
   xmlns:svg="http://www.w3.org/2000/svg">
  <defs
     id="defs2" />
  <path
     id="rect4"
     d="M 336 0 L 336 48 L 288 48 L 288 96 L 240 96 L 240 144 L 240 192 L 240 240 L 192 240 L 144 240 L 96 240 L 96 288 L 96 336 L 144 336 L 192 336 L 240 336 L 240 384 L 240 432 L 240 480 L 240 528 L 240 576 L 240 624 L 240 672 L 240 720 L 240 768 L 288 768 L 336 768 L 336 720 L 336 672 L 336 624 L 336 576 L 336 528 L 336 480 L 336 432 L 336 384 L 336 336 L 384 336 L 432 336 L 480 336 L 480 288 L 480 240 L 432 240 L 384 240 L 336 240 L 336 192 L 336 144 L 384 144 L 384 96 L 432 96 L 480 96 L 480 48 L 480 0 L 432 0 L 384 0 L 336 0 z " />
</svg>
