<?xml version="1.0" encoding="UTF-8" standalone="no"?>
<svg
   width="576"
   height="768"
   viewBox="0 0 576 768"
   version="1.1"
   id="svg92"
   xmlns="http://www.w3.org/2000/svg"
   xmlns:svg="http://www.w3.org/2000/svg">
  <defs
     id="defs2" />
  <path
     id="rect4"
     d="M 96 0 L 96 48 L 96 96 L 144 96 L 144 144 L 192 144 L 192 192 L 240 192 L 240 240 L 288 240 L 288 288 L 336 288 L 336 336 L 384 336 L 384 384 L 384 432 L 336 432 L 336 480 L 288 480 L 288 528 L 240 528 L 240 576 L 192 576 L 192 624 L 144 624 L 144 672 L 96 672 L 96 720 L 96 768 L 144 768 L 192 768 L 192 720 L 240 720 L 240 672 L 288 672 L 288 624 L 336 624 L 336 576 L 384 576 L 384 528 L 432 528 L 432 480 L 480 480 L 480 432 L 480 384 L 480 336 L 480 288 L 432 288 L 432 240 L 384 240 L 384 192 L 336 192 L 336 144 L 288 144 L 288 96 L 240 96 L 240 48 L 192 48 L 192 0 L 144 0 L 96 0 z " />
</svg>
