<?xml version="1.0" encoding="UTF-8" standalone="no"?>
<svg
   width="576"
   height="768"
   viewBox="0 0 576 768"
   version="1.1"
   id="svg196"
   xmlns="http://www.w3.org/2000/svg"
   xmlns:svg="http://www.w3.org/2000/svg">
  <defs
     id="defs2" />
  <path
     id="rect4"
     d="M 144 0 L 144 48 L 144 96 L 144 144 L 144 192 L 96 192 L 48 192 L 0 192 L 0 240 L 0 288 L 48 288 L 96 288 L 144 288 L 144 336 L 144 384 L 144 432 L 144 480 L 96 480 L 48 480 L 0 480 L 0 528 L 0 576 L 48 576 L 96 576 L 144 576 L 144 624 L 144 672 L 144 720 L 144 768 L 192 768 L 240 768 L 240 720 L 240 672 L 240 624 L 240 576 L 288 576 L 336 576 L 336 624 L 336 672 L 336 720 L 336 768 L 384 768 L 432 768 L 432 720 L 432 672 L 432 624 L 432 576 L 480 576 L 528 576 L 576 576 L 576 528 L 576 480 L 528 480 L 480 480 L 432 480 L 432 432 L 432 384 L 432 336 L 432 288 L 480 288 L 528 288 L 576 288 L 576 240 L 576 192 L 528 192 L 480 192 L 432 192 L 432 144 L 432 96 L 432 48 L 432 0 L 384 0 L 336 0 L 336 48 L 336 96 L 336 144 L 336 192 L 288 192 L 240 192 L 240 144 L 240 96 L 240 48 L 240 0 L 192 0 L 144 0 z M 240 288 L 288 288 L 336 288 L 336 336 L 336 384 L 336 432 L 336 480 L 288 480 L 240 480 L 240 432 L 240 384 L 240 336 L 240 288 z " />
</svg>
