<?xml version="1.0" encoding="UTF-8" standalone="no"?>
<svg
   width="576"
   height="768"
   viewBox="0 0 576 768"
   version="1.1"
   id="svg148"
   xmlns="http://www.w3.org/2000/svg"
   xmlns:svg="http://www.w3.org/2000/svg">
  <defs
     id="defs2" />
  <path
     id="rect4"
     d="M 0 0 L 0 48 L 0 96 L 48 96 L 96 96 L 144 96 L 192 96 L 240 96 L 240 144 L 240 192 L 240 240 L 240 288 L 240 336 L 240 384 L 240 432 L 240 480 L 240 528 L 240 576 L 240 624 L 240 672 L 192 672 L 144 672 L 96 672 L 48 672 L 0 672 L 0 720 L 0 768 L 48 768 L 96 768 L 144 768 L 192 768 L 240 768 L 288 768 L 336 768 L 384 768 L 432 768 L 480 768 L 528 768 L 576 768 L 576 720 L 576 672 L 528 672 L 480 672 L 432 672 L 384 672 L 336 672 L 336 624 L 336 576 L 336 528 L 336 480 L 336 432 L 336 384 L 336 336 L 336 288 L 336 240 L 336 192 L 336 144 L 336 96 L 384 96 L 432 96 L 480 96 L 528 96 L 576 96 L 576 48 L 576 0 L 528 0 L 480 0 L 432 0 L 384 0 L 336 0 L 288 0 L 240 0 L 192 0 L 144 0 L 96 0 L 48 0 L 0 0 z " />
</svg>
