<?xml version="1.0" encoding="UTF-8" standalone="no"?>
<svg
   width="576"
   height="768"
   viewBox="0 0 576 768"
   version="1.1"
   id="svg132"
   xmlns="http://www.w3.org/2000/svg"
   xmlns:svg="http://www.w3.org/2000/svg">
  <defs
     id="defs2" />
  <path
     id="rect4"
     d="M 0 0 L 0 48 L 0 96 L 0 144 L 0 192 L 0 240 L 0 288 L 0 336 L 0 384 L 0 432 L 0 480 L 0 528 L 0 576 L 0 624 L 0 672 L 0 720 L 0 768 L 48 768 L 96 768 L 96 720 L 96 672 L 96 624 L 96 576 L 144 576 L 144 624 L 192 624 L 192 672 L 240 672 L 240 720 L 288 720 L 288 768 L 336 768 L 384 768 L 432 768 L 432 720 L 384 720 L 384 672 L 336 672 L 336 624 L 288 624 L 288 576 L 240 576 L 240 528 L 240 480 L 288 480 L 288 432 L 336 432 L 336 384 L 384 384 L 384 336 L 432 336 L 432 288 L 432 240 L 384 240 L 336 240 L 336 288 L 288 288 L 288 336 L 240 336 L 240 384 L 192 384 L 192 432 L 144 432 L 144 480 L 96 480 L 96 432 L 96 384 L 96 336 L 96 288 L 96 240 L 96 192 L 96 144 L 96 96 L 96 48 L 96 0 L 48 0 L 0 0 z " />
</svg>
