<?xml version="1.0" encoding="UTF-8" standalone="no"?>
<svg
   width="576"
   height="768"
   viewBox="0 0 576 768"
   version="1.1"
   id="svg76"
   xmlns="http://www.w3.org/2000/svg"
   xmlns:svg="http://www.w3.org/2000/svg">
  <defs
     id="defs2" />
  <path
     id="rect4"
     d="M 192 0 L 192 48 L 192 96 L 192 144 L 192 192 L 192 240 L 192 288 L 192 336 L 192 384 L 192 432 L 192 480 L 192 528 L 192 576 L 192 624 L 192 672 L 192 720 L 240 720 L 240 768 L 288 768 L 336 768 L 384 768 L 384 720 L 384 672 L 336 672 L 336 624 L 288 624 L 288 576 L 288 528 L 288 480 L 288 432 L 288 384 L 288 336 L 288 288 L 288 240 L 288 192 L 288 144 L 288 96 L 288 48 L 288 0 L 240 0 L 192 0 z " />
</svg>
