<?xml version="1.0" encoding="UTF-8" standalone="no"?>
<svg
   width="576"
   height="768"
   viewBox="0 0 576 768"
   version="1.1"
   id="svg92"
   xmlns="http://www.w3.org/2000/svg"
   xmlns:svg="http://www.w3.org/2000/svg">
  <defs
     id="defs2" />
  <path
     id="rect4"
     d="M 384 0 L 384 48 L 336 48 L 336 96 L 288 96 L 288 144 L 240 144 L 240 192 L 192 192 L 192 240 L 144 240 L 144 288 L 96 288 L 96 336 L 96 384 L 96 432 L 96 480 L 144 480 L 144 528 L 192 528 L 192 576 L 240 576 L 240 624 L 288 624 L 288 672 L 336 672 L 336 720 L 384 720 L 384 768 L 432 768 L 480 768 L 480 720 L 480 672 L 432 672 L 432 624 L 384 624 L 384 576 L 336 576 L 336 528 L 288 528 L 288 480 L 240 480 L 240 432 L 192 432 L 192 384 L 192 336 L 240 336 L 240 288 L 288 288 L 288 240 L 336 240 L 336 192 L 384 192 L 384 144 L 432 144 L 432 96 L 480 96 L 480 48 L 480 0 L 432 0 L 384 0 z " />
</svg>
