<?xml version="1.0" encoding="UTF-8" standalone="no"?>
<svg
   width="576"
   height="768"
   viewBox="0 0 576 768"
   version="1.1"
   id="svg180"
   xmlns="http://www.w3.org/2000/svg"
   xmlns:svg="http://www.w3.org/2000/svg">
  <defs
     id="defs2" />
  <path
     id="rect4"
     d="M 0 0 L 0 48 L 0 96 L 0 144 L 0 192 L 0 240 L 0 288 L 0 336 L 0 384 L 0 432 L 0 480 L 0 528 L 0 576 L 0 624 L 0 672 L 0 720 L 0 768 L 48 768 L 96 768 L 96 720 L 96 672 L 96 624 L 96 576 L 96 528 L 96 480 L 96 432 L 96 384 L 96 336 L 96 288 L 96 240 L 96 192 L 144 192 L 144 240 L 192 240 L 192 288 L 240 288 L 240 336 L 288 336 L 288 384 L 336 384 L 336 432 L 384 432 L 384 480 L 432 480 L 432 528 L 480 528 L 480 576 L 480 624 L 480 672 L 480 720 L 480 768 L 528 768 L 576 768 L 576 720 L 576 672 L 576 624 L 576 576 L 576 528 L 576 480 L 576 432 L 576 384 L 576 336 L 576 288 L 576 240 L 576 192 L 576 144 L 576 96 L 576 48 L 576 0 L 528 0 L 480 0 L 480 48 L 480 96 L 480 144 L 480 192 L 480 240 L 480 288 L 480 336 L 480 384 L 432 384 L 432 336 L 384 336 L 384 288 L 336 288 L 336 240 L 288 240 L 288 192 L 240 192 L 240 144 L 192 144 L 192 96 L 144 96 L 144 48 L 96 48 L 96 0 L 48 0 L 0 0 z " />
</svg>
