<?xml version="1.0" encoding="UTF-8" standalone="no"?>
<svg
   width="576"
   height="768"
   viewBox="0 0 576 768"
   version="1.1"
   id="svg156"
   xmlns="http://www.w3.org/2000/svg"
   xmlns:svg="http://www.w3.org/2000/svg">
  <defs
     id="defs2" />
  <path
     id="rect4"
     d="M 0 0 L 0 48 L 0 96 L 0 144 L 0 192 L 0 240 L 0 288 L 0 336 L 0 384 L 0 432 L 0 480 L 0 528 L 0 576 L 0 624 L 0 672 L 0 720 L 0 768 L 48 768 L 96 768 L 96 720 L 96 672 L 96 624 L 96 576 L 96 528 L 96 480 L 96 432 L 96 384 L 144 384 L 192 384 L 240 384 L 288 384 L 336 384 L 384 384 L 432 384 L 480 384 L 480 336 L 528 336 L 528 288 L 576 288 L 576 240 L 576 192 L 576 144 L 576 96 L 528 96 L 528 48 L 480 48 L 480 0 L 432 0 L 384 0 L 336 0 L 288 0 L 240 0 L 192 0 L 144 0 L 96 0 L 48 0 L 0 0 z M 96 96 L 144 96 L 192 96 L 240 96 L 288 96 L 336 96 L 384 96 L 432 96 L 432 144 L 480 144 L 480 192 L 480 240 L 432 240 L 432 288 L 384 288 L 336 288 L 288 288 L 240 288 L 192 288 L 144 288 L 96 288 L 96 240 L 96 192 L 96 144 L 96 96 z " />
</svg>
