<?xml version="1.0" encoding="UTF-8" standalone="no"?>
<svg
   width="576"
   height="768"
   viewBox="0 0 576 768"
   version="1.1"
   id="svg92"
   xmlns="http://www.w3.org/2000/svg"
   xmlns:svg="http://www.w3.org/2000/svg">
  <defs
     id="defs2" />
  <path
     id="rect4"
     d="M 240 96 L 240 144 L 240 192 L 240 240 L 240 288 L 240 336 L 192 336 L 144 336 L 96 336 L 48 336 L 0 336 L 0 384 L 0 432 L 48 432 L 96 432 L 144 432 L 192 432 L 240 432 L 240 480 L 240 528 L 240 576 L 240 624 L 240 672 L 288 672 L 336 672 L 336 624 L 336 576 L 336 528 L 336 480 L 336 432 L 384 432 L 432 432 L 480 432 L 528 432 L 576 432 L 576 384 L 576 336 L 528 336 L 480 336 L 432 336 L 384 336 L 336 336 L 336 288 L 336 240 L 336 192 L 336 144 L 336 96 L 288 96 L 240 96 z " />
</svg>
