<?xml version="1.0" encoding="UTF-8" standalone="no"?>
<svg
   width="576"
   height="768"
   viewBox="0 0 576 768"
   version="1.1"
   id="svg114"
   xmlns="http://www.w3.org/2000/svg"
   xmlns:svg="http://www.w3.org/2000/svg">
  <defs
     id="defs2" />
  <path
     id="rect4"
     d="M 144 0 L 144 48 L 96 48 L 96 96 L 48 96 L 48 144 L 0 144 L 0 192 L 0 240 L 48 240 L 96 240 L 96 192 L 144 192 L 144 144 L 192 144 L 192 96 L 240 96 L 288 96 L 336 96 L 384 96 L 384 144 L 432 144 L 432 192 L 480 192 L 480 240 L 480 288 L 432 288 L 432 336 L 384 336 L 384 384 L 336 384 L 336 432 L 288 432 L 288 480 L 240 480 L 240 528 L 240 576 L 240 624 L 288 624 L 336 624 L 336 576 L 336 528 L 384 528 L 384 480 L 432 480 L 432 432 L 480 432 L 480 384 L 528 384 L 528 336 L 576 336 L 576 288 L 576 240 L 576 192 L 576 144 L 528 144 L 528 96 L 480 96 L 480 48 L 432 48 L 432 0 L 384 0 L 336 0 L 288 0 L 240 0 L 192 0 L 144 0 z M 240 672 L 240 720 L 240 768 L 288 768 L 336 768 L 336 720 L 336 672 L 288 672 L 240 672 z " />
</svg>
