<?xml version="1.0" encoding="UTF-8" standalone="no"?>
<svg
   width="576"
   height="768"
   viewBox="0 0 576 768"
   version="1.1"
   id="svg96"
   xmlns="http://www.w3.org/2000/svg"
   xmlns:svg="http://www.w3.org/2000/svg">
  <defs
     id="defs2" />
  <path
     id="rect4"
     d="M 0 240 L 0 288 L 0 336 L 0 384 L 0 432 L 0 480 L 0 528 L 0 576 L 0 624 L 0 672 L 0 720 L 0 768 L 48 768 L 96 768 L 96 720 L 96 672 L 96 624 L 96 576 L 96 528 L 96 480 L 96 432 L 144 432 L 144 384 L 192 384 L 192 336 L 240 336 L 288 336 L 336 336 L 384 336 L 432 336 L 432 384 L 480 384 L 480 432 L 528 432 L 576 432 L 576 384 L 576 336 L 528 336 L 528 288 L 480 288 L 480 240 L 432 240 L 384 240 L 336 240 L 288 240 L 240 240 L 192 240 L 144 240 L 144 288 L 96 288 L 96 240 L 48 240 L 0 240 z " />
</svg>
