<?xml version="1.0" encoding="UTF-8" standalone="no"?>
<svg
   width="576"
   height="768"
   viewBox="0 0 576 768"
   version="1.1"
   id="svg164"
   xmlns="http://www.w3.org/2000/svg"
   xmlns:svg="http://www.w3.org/2000/svg">
  <defs
     id="defs2" />
  <path
     id="rect4"
     d="M 48 240 L 48 288 L 0 288 L 0 336 L 0 384 L 0 432 L 0 480 L 0 528 L 48 528 L 48 576 L 96 576 L 144 576 L 192 576 L 240 576 L 288 576 L 336 576 L 384 576 L 432 576 L 480 576 L 480 624 L 480 672 L 432 672 L 384 672 L 336 672 L 288 672 L 240 672 L 192 672 L 144 672 L 96 672 L 96 624 L 48 624 L 0 624 L 0 672 L 0 720 L 48 720 L 48 768 L 96 768 L 144 768 L 192 768 L 240 768 L 288 768 L 336 768 L 384 768 L 432 768 L 480 768 L 528 768 L 528 720 L 576 720 L 576 672 L 576 624 L 576 576 L 576 528 L 528 528 L 528 480 L 480 480 L 432 480 L 384 480 L 336 480 L 288 480 L 240 480 L 192 480 L 144 480 L 96 480 L 96 432 L 96 384 L 96 336 L 144 336 L 192 336 L 240 336 L 288 336 L 336 336 L 384 336 L 432 336 L 480 336 L 480 384 L 528 384 L 576 384 L 576 336 L 576 288 L 528 288 L 528 240 L 480 240 L 432 240 L 384 240 L 336 240 L 288 240 L 240 240 L 192 240 L 144 240 L 96 240 L 48 240 z " />
</svg>
