<?xml version="1.0" encoding="UTF-8" standalone="no"?>
<svg
   width="576"
   height="768"
   viewBox="0 0 576 768"
   version="1.1"
   id="svg88"
   xmlns="http://www.w3.org/2000/svg"
   xmlns:svg="http://www.w3.org/2000/svg">
  <defs
     id="defs2" />
  <path
     id="rect4"
     d="M 480 0 L 480 48 L 480 96 L 480 144 L 432 144 L 432 192 L 384 192 L 384 240 L 336 240 L 336 288 L 288 288 L 288 336 L 240 336 L 240 384 L 192 384 L 192 432 L 144 432 L 144 480 L 96 480 L 96 528 L 48 528 L 48 576 L 0 576 L 0 624 L 0 672 L 0 720 L 0 768 L 48 768 L 96 768 L 96 720 L 96 672 L 96 624 L 144 624 L 144 576 L 192 576 L 192 528 L 240 528 L 240 480 L 288 480 L 288 432 L 336 432 L 336 384 L 384 384 L 384 336 L 432 336 L 432 288 L 480 288 L 480 240 L 528 240 L 528 192 L 576 192 L 576 144 L 576 96 L 576 48 L 576 0 L 528 0 L 480 0 z " />
</svg>
