<?xml version="1.0" encoding="UTF-8" standalone="no"?>
<svg
   width="576"
   height="768"
   viewBox="0 0 576 768"
   version="1.1"
   id="svg64"
   xmlns="http://www.w3.org/2000/svg"
   xmlns:svg="http://www.w3.org/2000/svg">
  <defs
     id="defs2" />
  <path
     id="rect4"
     d="M 96 288 L 96 336 L 48 336 L 48 384 L 0 384 L 0 432 L 0 480 L 48 480 L 96 480 L 96 432 L 144 432 L 144 384 L 192 384 L 240 384 L 240 432 L 288 432 L 288 480 L 336 480 L 384 480 L 432 480 L 480 480 L 480 432 L 528 432 L 528 384 L 576 384 L 576 336 L 576 288 L 528 288 L 480 288 L 480 336 L 432 336 L 432 384 L 384 384 L 336 384 L 336 336 L 288 336 L 288 288 L 240 288 L 192 288 L 144 288 L 96 288 z " />
</svg>
