<?xml version="1.0" encoding="UTF-8" standalone="no"?>
<svg
   width="576"
   height="768"
   viewBox="0 0 576 768"
   version="1.1"
   id="svg156"
   xmlns="http://www.w3.org/2000/svg"
   xmlns:svg="http://www.w3.org/2000/svg">
  <defs
     id="defs2" />
  <path
     id="rect4"
     d="M 0 0 L 0 48 L 0 96 L 0 144 L 0 192 L 0 240 L 0 288 L 0 336 L 0 384 L 0 432 L 0 480 L 0 528 L 0 576 L 0 624 L 0 672 L 48 672 L 48 720 L 96 720 L 96 768 L 144 768 L 192 768 L 240 768 L 288 768 L 336 768 L 384 768 L 432 768 L 480 768 L 480 720 L 528 720 L 528 672 L 576 672 L 576 624 L 576 576 L 576 528 L 576 480 L 576 432 L 576 384 L 576 336 L 576 288 L 576 240 L 576 192 L 576 144 L 576 96 L 576 48 L 576 0 L 528 0 L 480 0 L 480 48 L 480 96 L 480 144 L 480 192 L 480 240 L 480 288 L 480 336 L 480 384 L 480 432 L 480 480 L 480 528 L 480 576 L 480 624 L 432 624 L 432 672 L 384 672 L 336 672 L 288 672 L 240 672 L 192 672 L 144 672 L 144 624 L 96 624 L 96 576 L 96 528 L 96 480 L 96 432 L 96 384 L 96 336 L 96 288 L 96 240 L 96 192 L 96 144 L 96 96 L 96 48 L 96 0 L 48 0 L 0 0 z " />
</svg>
