<?xml version="1.0" encoding="UTF-8" standalone="no"?>
<svg
   width="576"
   height="768"
   viewBox="0 0 576 768"
   version="1.1"
   id="svg104"
   xmlns="http://www.w3.org/2000/svg"
   xmlns:svg="http://www.w3.org/2000/svg">
  <defs
     id="defs2" />
  <path
     id="rect4"
     d="M 0 240 L 0 288 L 0 336 L 0 384 L 0 432 L 0 480 L 0 528 L 48 528 L 48 576 L 96 576 L 96 624 L 144 624 L 144 672 L 192 672 L 192 720 L 240 720 L 240 768 L 288 768 L 336 768 L 336 720 L 384 720 L 384 672 L 432 672 L 432 624 L 480 624 L 480 576 L 528 576 L 528 528 L 576 528 L 576 480 L 576 432 L 576 384 L 576 336 L 576 288 L 576 240 L 528 240 L 480 240 L 480 288 L 480 336 L 480 384 L 480 432 L 480 480 L 432 480 L 432 528 L 384 528 L 384 576 L 336 576 L 336 624 L 288 624 L 240 624 L 240 576 L 192 576 L 192 528 L 144 528 L 144 480 L 96 480 L 96 432 L 96 384 L 96 336 L 96 288 L 96 240 L 48 240 L 0 240 z " />
</svg>
