<?xml version="1.0" encoding="UTF-8" standalone="no"?>
<svg
   width="576"
   height="768"
   viewBox="0 0 576 768"
   version="1.1"
   id="svg124"
   xmlns="http://www.w3.org/2000/svg"
   xmlns:svg="http://www.w3.org/2000/svg">
  <defs
     id="defs2" />
  <path
     id="rect4"
     d="M 0 240 L 0 288 L 0 336 L 48 336 L 48 384 L 96 384 L 96 432 L 144 432 L 144 480 L 192 480 L 192 528 L 144 528 L 144 576 L 96 576 L 96 624 L 48 624 L 48 672 L 0 672 L 0 720 L 0 768 L 48 768 L 96 768 L 96 720 L 144 720 L 144 672 L 192 672 L 192 624 L 240 624 L 240 576 L 288 576 L 336 576 L 336 624 L 384 624 L 384 672 L 432 672 L 432 720 L 480 720 L 480 768 L 528 768 L 576 768 L 576 720 L 576 672 L 528 672 L 528 624 L 480 624 L 480 576 L 432 576 L 432 528 L 384 528 L 384 480 L 432 480 L 432 432 L 480 432 L 480 384 L 528 384 L 528 336 L 576 336 L 576 288 L 576 240 L 528 240 L 480 240 L 480 288 L 432 288 L 432 336 L 384 336 L 384 384 L 336 384 L 336 432 L 288 432 L 240 432 L 240 384 L 192 384 L 192 336 L 144 336 L 144 288 L 96 288 L 96 240 L 48 240 L 0 240 z " />
</svg>
