<?xml version="1.0" encoding="UTF-8" standalone="no"?>
<svg
   width="576"
   height="768"
   viewBox="0 0 576 768"
   version="1.1"
   id="svg124"
   xmlns="http://www.w3.org/2000/svg"
   xmlns:svg="http://www.w3.org/2000/svg">
  <defs
     id="defs2" />
  <path
     id="rect4"
     d="M 0 0 L 0 48 L 0 96 L 0 144 L 0 192 L 0 240 L 0 288 L 48 288 L 48 336 L 96 336 L 96 384 L 144 384 L 144 432 L 192 432 L 192 480 L 240 480 L 240 528 L 240 576 L 240 624 L 240 672 L 240 720 L 240 768 L 288 768 L 336 768 L 336 720 L 336 672 L 336 624 L 336 576 L 336 528 L 336 480 L 384 480 L 384 432 L 432 432 L 432 384 L 480 384 L 480 336 L 528 336 L 528 288 L 576 288 L 576 240 L 576 192 L 576 144 L 576 96 L 576 48 L 576 0 L 528 0 L 480 0 L 480 48 L 480 96 L 480 144 L 480 192 L 480 240 L 432 240 L 432 288 L 384 288 L 384 336 L 336 336 L 336 384 L 288 384 L 240 384 L 240 336 L 192 336 L 192 288 L 144 288 L 144 240 L 96 240 L 96 192 L 96 144 L 96 96 L 96 48 L 96 0 L 48 0 L 0 0 z " />
</svg>
